<svg width="1200" height="3180" fill="none" xmlns="http://www.w3.org/2000/svg"><path d="M877.013 1807.46a109.2 109.2 0 0041.727-8.28 108.946 108.946 0 0035.374-23.57 108.649 108.649 0 0023.637-35.27c5.479-13.19 8.3-27.33 8.3-41.61 0-14.28-2.821-28.42-8.3-41.61a108.649 108.649 0 00-23.637-35.27 108.946 108.946 0 00-35.374-23.57 109.2 109.2 0 00-41.727-8.28v217.46z" fill="#173631"/><path d="M981.925 1590c0 14.32 2.813 28.49 8.277 41.72a109.088 109.088 0 0023.568 35.37 108.726 108.726 0 0035.28 23.64c13.2 5.48 27.34 8.3 41.62 8.3 14.28 0 28.42-2.82 41.61-8.3a108.726 108.726 0 0035.28-23.64 108.855 108.855 0 0023.57-35.37c5.47-13.23 8.28-27.4 8.28-41.72H981.925z" fill="#26828B"/><path d="M611.199 1829.27c0-14.32 2.82-28.5 8.3-41.73a109.177 109.177 0 0123.637-35.37 109.115 109.115 0 0135.374-23.63 109.027 109.027 0 0141.726-8.3v109.03H611.199z" fill="#161616"/><path d="M851.67 1590c0 14.32-2.82 28.49-8.3 41.72a108.964 108.964 0 01-23.637 35.37 109.027 109.027 0 01-77.1 31.94V1590H851.67z" fill="#26828B"/><path d="M1089.78 1720.24a109.046 109.046 0 01100.74 67.3c5.48 13.23 8.3 27.41 8.3 41.73h-109.04v-109.03zM665.718 1590c30.109 0 54.518 24.41 54.518 54.51v54.52H611.199v-54.52c0-30.1 24.409-54.51 54.519-54.51z" fill="#1B5E64"/><path d="M796.561 1720.24c-30.109 0-54.518 24.41-54.518 54.51v54.52H851.08v-54.52c0-30.1-24.409-54.51-54.519-54.51z" fill="#00B8A2"/><ellipse cx="1025.25" cy="1785.95" rx="43.315" ry="43.32" transform="rotate(90 1025.25 1785.95)" fill="#1B5E64"/><path d="M981.926 3177.64a109.02 109.02 0 0041.724-8.3 109.172 109.172 0 0035.38-23.63 109.034 109.034 0 0031.93-77.09H981.926v109.02zM1089.78 2829.35c0 7.12 1.41 14.17 4.15 20.75a54.285 54.285 0 0011.82 17.59 54.457 54.457 0 0017.69 11.75c6.61 2.73 13.7 4.13 20.86 4.13s14.25-1.4 20.87-4.13a54.52 54.52 0 0017.68-11.75 54.285 54.285 0 0011.82-17.59 53.97 53.97 0 004.15-20.75h-109.04z" fill="#173631"/><path d="M1199.41 3047.4c0-14.32-2.81-28.49-8.28-41.72a108.855 108.855 0 00-58.85-59 108.45 108.45 0 00-41.61-8.3c-14.28 0-28.42 2.82-41.62 8.3a108.857 108.857 0 00-35.28 23.63 109.088 109.088 0 00-23.568 35.37 109.275 109.275 0 00-8.277 41.72h217.485z" fill="#26828B"/><path d="M720.826 2938.38c14.319 0 28.498 2.82 41.726 8.3a109.104 109.104 0 0135.374 23.63 108.964 108.964 0 0123.637 35.37c5.481 13.23 8.3 27.4 8.3 41.72H720.826v-109.02z" fill="#161616"/><path d="M612.378 3068.62c0 14.31 2.812 28.49 8.278 41.72a109.081 109.081 0 0023.573 35.37 108.795 108.795 0 0035.278 23.63 108.48 108.48 0 0083.227 0 108.8 108.8 0 0035.279-23.63 109.113 109.113 0 0023.573-35.37 109.294 109.294 0 008.277-41.72H612.378z" fill="#173631"/><path d="M959.529 2829.35c0 14.32-2.812 28.5-8.277 41.72a109.007 109.007 0 01-23.573 35.37 108.669 108.669 0 01-35.279 23.64 108.472 108.472 0 01-83.227 0 108.665 108.665 0 01-35.278-23.64 108.975 108.975 0 01-23.573-35.37 109.2 109.2 0 01-8.278-41.72h217.485z" fill="#E6E6E6"/><path d="M960.117 2959.59c-14.319 0-28.498 2.81-41.726 8.28a108.935 108.935 0 00-35.374 23.57 108.649 108.649 0 00-23.637 35.27 108.45 108.45 0 000 83.22 108.797 108.797 0 0023.637 35.28 109.255 109.255 0 0035.374 23.57 109.37 109.37 0 0041.726 8.27v-217.46z" fill="#173631"/><path d="M665.718 2938.38c-30.11 0-54.519-24.41-54.519-54.52v-54.51h109.037v54.51c0 30.11-24.409 54.52-54.518 54.52z" fill="#26828B"/><ellipse cx="1155.5" cy="3111.93" rx="43.315" ry="43.32" transform="rotate(90 1155.5 3111.93)" fill="#1B5E64"/><ellipse cx="1025.25" cy="2872.67" rx="43.315" ry="43.32" transform="rotate(90 1025.25 2872.67)" fill="#26828B"/><ellipse cx="654.518" cy="3002.91" rx="43.315" ry="43.32" transform="rotate(90 654.518 3002.91)" fill="#1B5E64"/><path d="M829.863 2198.77c-14.319 0-28.498-2.82-41.727-8.3a109.104 109.104 0 01-35.374-23.63 108.96 108.96 0 01-23.636-35.37c-5.48-13.23-8.3-27.4-8.3-41.72h109.037v109.02z" fill="#1B5E64"/><path d="M699.017 2547.06c0-7.12 1.41-14.17 4.15-20.74a54.142 54.142 0 0111.818-17.59 54.561 54.561 0 0117.688-11.76 54.862 54.862 0 0120.863-4.12c7.159 0 14.249 1.4 20.863 4.12a54.561 54.561 0 0117.688 11.76 54.142 54.142 0 0111.818 17.59 53.884 53.884 0 014.15 20.74H699.017z" fill="#161616"/><path d="M1090.96 2307.8c0-7.12 1.41-14.17 4.15-20.75a54.285 54.285 0 0111.82-17.59 54.457 54.457 0 0117.69-11.75c6.61-2.73 13.7-4.13 20.86-4.13s14.25 1.4 20.86 4.13a54.457 54.457 0 0117.69 11.75 54.285 54.285 0 0111.82 17.59 53.97 53.97 0 014.15 20.75h-109.04z" fill="#26828B"/><path d="M721.414 1850.48c0 7.12-1.41 14.17-4.15 20.75a54.142 54.142 0 01-11.818 17.59 54.38 54.38 0 01-17.687 11.75 54.687 54.687 0 01-20.864 4.13c-7.159 0-14.248-1.4-20.863-4.13a54.37 54.37 0 01-17.687-11.75 54.126 54.126 0 01-11.818-17.59 53.97 53.97 0 01-4.15-20.75h109.037zM612.378 2068.53c0-14.31 2.813-28.49 8.278-41.72a108.956 108.956 0 0123.572-35.37 108.789 108.789 0 0135.279-23.63 108.477 108.477 0 0183.228 0 108.784 108.784 0 0135.278 23.63 108.975 108.975 0 0123.573 35.37 109.294 109.294 0 018.277 41.72H612.378z" fill="#173631"/><path d="M1090.96 1959.51v109.02H981.926a109.033 109.033 0 0131.934-77.09 109.172 109.172 0 0135.38-23.63c13.22-5.48 27.4-8.3 41.72-8.3z" fill="#26828B"/><path d="M1199.41 2089.75c0 14.32-2.81 28.49-8.28 41.72a108.855 108.855 0 01-58.85 59 108.45 108.45 0 01-41.61 8.3c-14.28 0-28.42-2.82-41.62-8.3a108.708 108.708 0 01-35.27-23.63 108.973 108.973 0 01-23.578-35.37 109.256 109.256 0 01-8.277-41.72h217.485z" fill="#1B5E64"/><path d="M612.377 2329.6c14.319 0 28.498 2.82 41.727 8.28a108.935 108.935 0 0135.374 23.57 108.688 108.688 0 0123.636 35.28 108.437 108.437 0 010 83.21 108.794 108.794 0 01-23.636 35.28 109.255 109.255 0 01-35.374 23.57 109.379 109.379 0 01-41.727 8.27V2329.6z" fill="#00B8A2"/><path d="M934.773 2785.74c-14.318 0-28.498-2.81-41.726-8.28a108.946 108.946 0 01-35.374-23.57 108.649 108.649 0 01-23.637-35.27 108.45 108.45 0 010-83.22 108.649 108.649 0 0123.637-35.27 108.946 108.946 0 0135.374-23.57 109.195 109.195 0 0141.726-8.28v217.46z" fill="#1B5E64"/><path d="M829.863 2568.28c0 14.32-2.812 28.49-8.277 41.72a108.975 108.975 0 01-23.573 35.37 108.654 108.654 0 01-35.278 23.64 108.475 108.475 0 01-41.614 8.29c-14.281 0-28.421-2.81-41.614-8.29a108.658 108.658 0 01-35.279-23.64 108.956 108.956 0 01-23.572-35.37 109.257 109.257 0 01-8.278-41.72h217.485z" fill="#26828B"/><path d="M960.707 2459.84c14.319 0 28.498 2.82 41.723 8.28a109.163 109.163 0 0135.38 23.57 108.75 108.75 0 0123.63 35.28 108.437 108.437 0 010 83.21 108.857 108.857 0 01-23.63 35.28 109.323 109.323 0 01-35.38 23.57 109.344 109.344 0 01-41.723 8.27v-217.46z" fill="#00B8A2"/><path d="M1200 2547.06c-14.32 0-28.5-2.81-41.73-8.27a109.28 109.28 0 01-35.37-23.57 108.726 108.726 0 01-23.64-35.28 108.437 108.437 0 010-83.21 108.62 108.62 0 0123.64-35.28 108.96 108.96 0 0135.37-23.57c13.23-5.46 27.41-8.28 41.73-8.28v217.46z" fill="#1B5E64"/><path d="M852.259 2307.8c0-14.32 2.812-28.5 8.277-41.72a108.993 108.993 0 0123.574-35.37 108.654 108.654 0 0135.278-23.64 108.477 108.477 0 0183.232 0 108.578 108.578 0 0135.27 23.64 109.042 109.042 0 0123.58 35.37c5.46 13.22 8.27 27.4 8.27 41.72H852.259z" fill="#173631"/><path d="M852.259 1850.48h217.481c0 14.32-2.81 28.5-8.27 41.72a109.191 109.191 0 01-23.58 35.38 108.708 108.708 0 01-35.27 23.63 108.477 108.477 0 01-83.232 0 108.654 108.654 0 01-35.278-23.64 108.993 108.993 0 01-23.574-35.37 109.219 109.219 0 01-8.277-41.72z" fill="#1B5E64"/><path d="M851.67 1980.72c14.318 0 28.498 2.82 41.726 8.28a108.935 108.935 0 0135.374 23.57 108.755 108.755 0 0123.637 35.27 108.45 108.45 0 010 83.22 108.797 108.797 0 01-23.637 35.28 109.255 109.255 0 01-35.374 23.57 109.374 109.374 0 01-41.726 8.27v-217.46zM829.863 2438.04a109.2 109.2 0 01-41.727-8.28 108.935 108.935 0 01-35.374-23.57 108.646 108.646 0 01-23.636-35.27 108.45 108.45 0 010-83.22 108.646 108.646 0 0123.636-35.27 109.123 109.123 0 0135.374-23.58 109.382 109.382 0 0141.727-8.27v217.46z" fill="#26828B"/><path d="M960.707 2438.04v-109.03h109.033c0 14.32-2.82 28.5-8.3 41.73a109.237 109.237 0 01-23.63 35.37 109.172 109.172 0 01-35.38 23.63 108.997 108.997 0 01-41.723 8.3zM1200 2807.55h-109.04v-109.03a109.046 109.046 0 01100.74 67.3c5.48 13.23 8.3 27.41 8.3 41.73z" fill="#161616"/><path d="M938.9 2438.04v109.02H829.863c0-14.31 2.82-28.49 8.3-41.72a109.177 109.177 0 0123.637-35.37 109.115 109.115 0 0135.374-23.63 109.027 109.027 0 0141.726-8.3z" fill="#26828B"/><path d="M721.414 2698.52v109.03H612.377c0-14.32 2.82-28.5 8.3-41.73a109.158 109.158 0 0123.636-35.37 109.104 109.104 0 0135.374-23.63 109.032 109.032 0 0141.727-8.3zM721.414 2253.29c0 30.1-24.409 54.51-54.519 54.51h-54.518v-109.03h54.518c30.11 0 54.519 24.41 54.519 54.52z" fill="#E6E6E6"/><path d="M1145.48 1959.51c-30.11 0-54.52-24.41-54.52-54.51v-54.52H1200V1905c0 30.1-24.41 54.51-54.52 54.51zM1145.48 2568.28c30.11 0 54.52 24.41 54.52 54.51v54.51h-109.04v-54.51c0-30.1 24.41-54.51 54.52-54.51z" fill="#00B8A2"/><path d="M1015.23 2698.52c30.11 0 54.51 24.41 54.51 54.51v54.52H960.707v-54.52c0-30.1 24.409-54.51 54.523-54.51z" fill="#173631"/><path d="M699.018 2133.06c0 23.93-19.396 43.32-43.321 43.32-23.925 0-43.32-19.39-43.32-43.32 0-23.92 19.395-43.31 43.32-43.31s43.321 19.39 43.321 43.31z" fill="#26828B"/><path d="M829.273 1893.8c0 23.92-19.395 43.31-43.32 43.31s-43.32-19.39-43.32-43.31 19.395-43.32 43.32-43.32 43.32 19.4 43.32 43.32z" fill="#E6E6E6"/><path d="M1200 2024.04c0 23.92-19.4 43.31-43.32 43.31-23.93 0-43.32-19.39-43.32-43.31s19.39-43.32 43.32-43.32c23.92 0 43.32 19.4 43.32 43.32z" fill="#161616"/><path d="M938.311 2372.92c0 23.92-19.396 43.31-43.321 43.31-23.925 0-43.32-19.39-43.32-43.31s19.395-43.32 43.32-43.32 43.321 19.4 43.321 43.32z" fill="#173631"/><path d="M829.273 2764.23c0 23.92-19.395 43.32-43.32 43.32s-43.32-19.4-43.32-43.32 19.395-43.31 43.32-43.31 43.32 19.39 43.32 43.31z" fill="#1B5E64"/><path d="M217.484 1938.29c-14.319 0-28.497-2.82-41.726-8.3a109.098 109.098 0 01-35.375-23.63 109.174 109.174 0 01-23.636-35.37c-5.48-13.23-8.3-27.41-8.3-41.72h109.037v109.02z" fill="#173631"/><path d="M86.64 2286.58c0-7.12 1.41-14.17 4.15-20.74a54.289 54.289 0 0111.818-17.6 54.694 54.694 0 0117.688-11.75 54.862 54.862 0 0120.863-4.12c7.159 0 14.249 1.4 20.863 4.12a54.694 54.694 0 0117.688 11.75 54.29 54.29 0 0111.818 17.6 53.884 53.884 0 014.15 20.74H86.64z" fill="#1B5E64"/><path d="M478.586 2047.32a53.99 53.99 0 014.15-20.75 54.139 54.139 0 0111.817-17.59 54.583 54.583 0 0117.688-11.76 54.862 54.862 0 0120.863-4.12c7.16 0 14.249 1.4 20.864 4.12a54.583 54.583 0 0117.688 11.76 54.139 54.139 0 0111.817 17.59 53.99 53.99 0 014.15 20.75H478.586zM109.037 1590c0 7.12-1.41 14.17-4.15 20.75a54.242 54.242 0 01-11.818 17.59 54.532 54.532 0 01-17.687 11.75 54.686 54.686 0 01-20.864 4.13c-7.159 0-14.248-1.4-20.863-4.13a54.53 54.53 0 01-17.687-11.75 54.238 54.238 0 01-11.818-17.59A53.974 53.974 0 010 1590h109.037z" fill="#161616"/><path d="M0 1808.05c0-14.32 2.812-28.49 8.277-41.72a108.973 108.973 0 0123.572-35.37 108.66 108.66 0 0135.279-23.64 108.658 108.658 0 0141.614-8.29c14.28 0 28.42 2.82 41.614 8.29a108.654 108.654 0 0135.278 23.64 108.975 108.975 0 0123.573 35.37 109.256 109.256 0 018.277 41.72H-.001z" fill="#1B5E64"/><path d="M479.176 1699.03v109.02H370.138c0-14.32 2.82-28.49 8.3-41.72a108.98 108.98 0 0123.637-35.37 108.995 108.995 0 0135.374-23.64 109.21 109.21 0 0141.727-8.29zM587.623 1829.27c0 14.31-2.812 28.49-8.277 41.72a109.206 109.206 0 01-23.574 35.37 108.795 108.795 0 01-35.278 23.63 108.48 108.48 0 01-83.227 0 108.8 108.8 0 01-35.279-23.63 109.22 109.22 0 01-23.573-35.37 109.294 109.294 0 01-8.277-41.72h217.485z" fill="#26828B"/><path d="M0 2069.12c14.319 0 28.498 2.81 41.727 8.28a108.935 108.935 0 0135.374 23.57 108.637 108.637 0 0123.636 35.27 108.45 108.45 0 010 83.22 108.637 108.637 0 01-23.636 35.27 109.122 109.122 0 01-35.374 23.58A109.378 109.378 0 010 2286.58v-217.46z" fill="#173631"/><path d="M321.807 2525.26a109.2 109.2 0 01-41.727-8.28 108.957 108.957 0 01-35.374-23.57 108.649 108.649 0 01-23.637-35.27 108.469 108.469 0 01-8.3-41.61c0-14.28 2.821-28.42 8.3-41.61a108.649 108.649 0 0123.637-35.27 108.957 108.957 0 0135.374-23.57 109.2 109.2 0 0141.727-8.28v217.46z" fill="#1B5E64"/><path d="M217.484 2307.8c0 14.32-2.812 28.49-8.277 41.72a108.975 108.975 0 01-23.573 35.37 108.813 108.813 0 01-35.278 23.64 108.662 108.662 0 01-41.614 8.29c-14.28 0-28.421-2.82-41.614-8.29a108.818 108.818 0 01-35.279-23.64 108.973 108.973 0 01-23.572-35.37 109.26 109.26 0 01-8.278-41.72h217.485z" fill="#00B8A2"/><path d="M348.33 2199.36a109.38 109.38 0 0141.726 8.28 108.935 108.935 0 0135.374 23.57 108.755 108.755 0 0123.637 35.27 108.45 108.45 0 010 83.22 108.797 108.797 0 01-23.637 35.28 109.255 109.255 0 01-35.374 23.57 109.37 109.37 0 01-41.726 8.27v-217.46zM587.623 2286.58a109.37 109.37 0 01-41.726-8.27 109.123 109.123 0 01-35.374-23.58 108.649 108.649 0 01-23.637-35.27 108.431 108.431 0 01-8.3-41.61c0-14.28 2.819-28.42 8.3-41.61a108.649 108.649 0 0123.637-35.27 108.935 108.935 0 0135.374-23.57 109.191 109.191 0 0141.726-8.28v217.46z" fill="#26828B"/><path d="M239.292 2047.32c0-14.32 2.812-28.5 8.278-41.73a109.188 109.188 0 0123.573-35.37 108.795 108.795 0 0135.278-23.63 108.48 108.48 0 0183.227 0 108.8 108.8 0 0135.279 23.63 109.22 109.22 0 0123.573 35.37 109.306 109.306 0 018.277 41.73H239.292z" fill="#173631"/><path d="M239.292 1590h217.485c0 14.32-2.812 28.49-8.277 41.72a109.007 109.007 0 01-23.573 35.37 108.669 108.669 0 01-35.279 23.64 108.472 108.472 0 01-83.227 0 108.665 108.665 0 01-35.278-23.64 108.975 108.975 0 01-23.573-35.37 109.238 109.238 0 01-8.278-41.72z" fill="#26828B"/><path d="M239.293 1720.24c14.319 0 28.498 2.81 41.726 8.28a108.935 108.935 0 0135.374 23.57 108.649 108.649 0 0123.637 35.27 108.45 108.45 0 010 83.22 108.649 108.649 0 01-23.637 35.27 108.935 108.935 0 01-35.374 23.57 109.191 109.191 0 01-41.726 8.28v-217.46z" fill="#00B8A2"/><path d="M217.484 2177.56c-14.319 0-28.497-2.81-41.726-8.28a108.929 108.929 0 01-35.375-23.57 108.752 108.752 0 01-23.636-35.27 108.45 108.45 0 010-83.22 108.794 108.794 0 0123.636-35.28 109.248 109.248 0 0135.375-23.57 109.374 109.374 0 0141.726-8.27v217.46z" fill="#26828B"/><path d="M348.33 2177.56v-109.03h109.037c0 14.32-2.82 28.5-8.3 41.72a108.964 108.964 0 01-23.637 35.37 109.023 109.023 0 01-77.1 31.94z" fill="#173631"/><path d="M587.623 2547.06H478.586v-109.02c14.318 0 28.498 2.82 41.726 8.3a109.104 109.104 0 0135.374 23.63 109.177 109.177 0 0123.637 35.37c5.48 13.23 8.3 27.41 8.3 41.72z" fill="#161616"/><path d="M326.523 2177.56v109.02H217.486c0-14.32 2.82-28.49 8.3-41.72a108.964 108.964 0 0123.637-35.37 109.115 109.115 0 0135.374-23.63 109.027 109.027 0 0141.726-8.3z" fill="#1B5E64"/><path d="M109.037 2438.04v109.02H0c0-14.31 2.82-28.49 8.3-41.72a109.165 109.165 0 0123.636-35.37 109.103 109.103 0 0135.374-23.63 109.03 109.03 0 0141.727-8.3z" fill="#26828B"/><path d="M109.037 1992.8c0 30.11-24.409 54.52-54.519 54.52H0v-109.03h54.518c30.11 0 54.519 24.41 54.519 54.51zM533.104 1699.03c-30.109 0-54.518-24.41-54.518-54.52V1590h109.037v54.51c0 30.11-24.409 54.52-54.519 54.52z" fill="#00B8A2"/><path d="M533.104 2307.8c30.11 0 54.519 24.41 54.519 54.51v54.51H478.586v-54.51c0-30.1 24.409-54.51 54.518-54.51z" fill="#1B5E64"/><path d="M402.849 2438.04c30.109 0 54.518 24.41 54.518 54.51v54.51H348.33v-54.51c0-30.1 24.409-54.51 54.519-54.51zM86.64 1872.58c0 23.92-19.394 43.32-43.32 43.32-23.925 0-43.32-19.4-43.32-43.32s19.395-43.31 43.32-43.31c23.926 0 43.32 19.39 43.32 43.31z" fill="#E6E6E6"/><path d="M216.896 1633.32c0 23.92-19.395 43.31-43.32 43.31s-43.32-19.39-43.32-43.31c0-23.93 19.395-43.32 43.32-43.32s43.32 19.39 43.32 43.32z" fill="#00B8A2"/><path d="M587.623 1763.56c0 23.92-19.395 43.31-43.32 43.31s-43.32-19.39-43.32-43.31c0-23.93 19.395-43.32 43.32-43.32s43.32 19.39 43.32 43.32zM325.934 2112.44c0 23.92-19.396 43.31-43.321 43.31-23.925 0-43.32-19.39-43.32-43.31 0-23.93 19.395-43.32 43.32-43.32s43.321 19.39 43.321 43.32zM216.896 2503.75c0 23.92-19.395 43.31-43.32 43.31s-43.32-19.39-43.32-43.31 19.395-43.32 43.32-43.32 43.32 19.4 43.32 43.32zM500.982 2831.12c0 7.12-1.41 14.17-4.15 20.75a54.323 54.323 0 01-11.818 17.59 54.518 54.518 0 01-17.687 11.75 54.872 54.872 0 01-20.863 4.13c-7.16 0-14.249-1.41-20.864-4.13a54.54 54.54 0 01-17.687-11.75 54.355 54.355 0 01-11.818-17.59 53.97 53.97 0 01-4.15-20.75h109.037zM109.037 3070.97c0 7.12-1.411 14.18-4.15 20.75a54.132 54.132 0 01-11.817 17.59 54.577 54.577 0 01-17.688 11.76 54.862 54.862 0 01-20.864 4.12c-7.159 0-14.249-1.4-20.863-4.12a54.577 54.577 0 01-17.688-11.76 54.133 54.133 0 01-11.817-17.59A53.952 53.952 0 010 3070.97h109.037z" fill="#161616"/><path d="M587.623 3048.58a109.2 109.2 0 01-41.727-8.28 108.935 108.935 0 01-35.374-23.57 108.63 108.63 0 01-23.636-35.27 108.45 108.45 0 010-83.22 108.63 108.63 0 0123.636-35.27 108.935 108.935 0 0135.374-23.57 109.2 109.2 0 0141.727-8.28v217.46zM265.226 2592.44c14.319 0 28.498 2.82 41.727 8.28a108.957 108.957 0 0135.374 23.57 108.755 108.755 0 0123.637 35.27c5.479 13.2 8.3 27.34 8.3 41.61 0 14.28-2.821 28.42-8.3 41.61a108.797 108.797 0 01-23.637 35.28 109.276 109.276 0 01-35.374 23.57 109.379 109.379 0 01-41.727 8.27v-217.46z" fill="#173631"/><path d="M370.138 2809.9c0-14.31 2.813-28.49 8.277-41.72a109.188 109.188 0 0123.573-35.37 108.784 108.784 0 0135.278-23.63 108.485 108.485 0 0183.228 0 108.789 108.789 0 0135.279 23.63 109.188 109.188 0 0123.573 35.37 109.312 109.312 0 018.277 41.72H370.138z" fill="#00B8A2"/><path d="M239.293 2918.34c-14.319 0-28.498-2.81-41.726-8.28a108.935 108.935 0 01-35.374-23.57 108.633 108.633 0 01-23.637-35.27 108.431 108.431 0 01-8.3-41.61c0-14.28 2.819-28.42 8.3-41.61a108.633 108.633 0 0123.637-35.27 108.935 108.935 0 0135.374-23.57 109.191 109.191 0 0141.726-8.28v217.46z" fill="#26828B"/><path d="M0 2831.12c14.319 0 28.498 2.81 41.726 8.28a108.943 108.943 0 0135.374 23.57 108.645 108.645 0 0123.637 35.27 108.45 108.45 0 010 83.22 108.645 108.645 0 01-23.637 35.27 108.943 108.943 0 01-35.374 23.57A109.195 109.195 0 010 3048.58v-217.46z" fill="#1B5E64"/><path d="M347.74 3070.97c0 14.32-2.812 28.5-8.277 41.73a109.22 109.22 0 01-23.573 35.37 108.8 108.8 0 01-35.279 23.63 108.472 108.472 0 01-83.227 0 108.795 108.795 0 01-35.278-23.63 109.206 109.206 0 01-23.574-35.37 109.306 109.306 0 01-8.277-41.73H347.74z" fill="#00B8A2"/><path d="M370.138 2940.14c14.319 0 28.498 2.82 41.727 8.28a109.095 109.095 0 0135.374 23.57 108.675 108.675 0 0123.637 35.28c5.479 13.19 8.3 27.33 8.3 41.61 0 14.27-2.821 28.41-8.3 41.6a108.675 108.675 0 01-23.637 35.28 109.095 109.095 0 01-35.374 23.57 109.389 109.389 0 01-41.727 8.28v-217.47z" fill="#26828B"/><path d="M239.293 2940.73v109.03H130.256c0-14.32 2.819-28.5 8.3-41.72a108.948 108.948 0 0123.637-35.37 109.023 109.023 0 0177.1-31.94z" fill="#00B8A2"/><path d="M0 2570.64h109.037v109.02c-14.319 0-28.498-2.82-41.726-8.3a109.112 109.112 0 01-35.374-23.63A109.07 109.07 0 018.3 2612.36a109.03 109.03 0 01-8.3-41.72zM261.099 2940.14v-109.02h109.038c0 14.32-2.82 28.49-8.3 41.72a108.964 108.964 0 01-23.637 35.37 109.154 109.154 0 01-35.374 23.64 109.21 109.21 0 01-41.727 8.29z" fill="#26828B"/><path d="M478.586 2679.66v-109.02h109.037c0 14.31-2.82 28.49-8.3 41.72a109.067 109.067 0 01-23.636 35.37 109.104 109.104 0 01-35.374 23.63 109.035 109.035 0 01-41.727 8.3z" fill="#E6E6E6"/><path d="M478.586 3125.49c0-30.11 24.409-54.52 54.518-54.52h54.519V3180h-54.519c-30.109 0-54.518-24.41-54.518-54.51z" fill="#00B8A2"/><path d="M54.518 2809.9C24.408 2809.9 0 2785.5 0 2755.39v-54.51h109.037v54.51c0 30.11-24.409 54.51-54.519 54.51z" fill="#E6E6E6"/><path d="M184.774 2679.66c-30.109 0-54.518-24.4-54.518-54.51v-54.51h109.037v54.51c0 30.11-24.409 54.51-54.519 54.51z" fill="#00B8A2"/><path d="M261.69 3005.85c0-23.92 19.395-43.31 43.32-43.31s43.32 19.39 43.32 43.31c0 23.93-19.395 43.32-43.32 43.32s-43.32-19.39-43.32-43.32zM370.727 2613.95c0-23.92 19.395-43.31 43.32-43.31s43.32 19.39 43.32 43.31-19.395 43.32-43.32 43.32-43.32-19.4-43.32-43.32z" fill="#1B5E64"/><path d="M877.013 1372.54a109.2 109.2 0 0141.727 8.28 108.946 108.946 0 0135.374 23.57 108.649 108.649 0 0123.637 35.27c5.479 13.19 8.3 27.33 8.3 41.61 0 14.28-2.821 28.42-8.3 41.61a108.649 108.649 0 01-23.637 35.27 108.946 108.946 0 01-35.374 23.57 109.2 109.2 0 01-41.727 8.28v-217.46z" fill="#173631"/><path d="M981.925 1590c0-14.32 2.813-28.49 8.277-41.72a109.088 109.088 0 0123.568-35.37 108.726 108.726 0 0135.28-23.64c13.2-5.48 27.34-8.3 41.62-8.3 14.28 0 28.42 2.82 41.61 8.3a108.726 108.726 0 0135.28 23.64 108.855 108.855 0 0123.57 35.37c5.47 13.23 8.28 27.4 8.28 41.72H981.925z" fill="#26828B"/><path d="M611.199 1350.73c0 14.32 2.82 28.5 8.3 41.73a109.177 109.177 0 0023.637 35.37 109.115 109.115 0 0035.374 23.63 109.027 109.027 0 0041.726 8.3v-109.03H611.199z" fill="#161616"/><path d="M851.67 1590c0-14.32-2.82-28.49-8.3-41.72a108.964 108.964 0 00-23.637-35.37 109.027 109.027 0 00-77.1-31.94V1590H851.67z" fill="#26828B"/><path d="M1089.78 1459.76a109.046 109.046 0 00100.74-67.3c5.48-13.23 8.3-27.41 8.3-41.73h-109.04v109.03zM665.718 1590c30.109 0 54.518-24.41 54.518-54.51v-54.52H611.199v54.52c0 30.1 24.409 54.51 54.519 54.51z" fill="#1B5E64"/><path d="M796.561 1459.76c-30.109 0-54.518-24.41-54.518-54.51v-54.52H851.08v54.52c0 30.1-24.409 54.51-54.519 54.51z" fill="#00B8A2"/><ellipse rx="43.315" ry="43.32" transform="matrix(0 -1 -1 0 1025.25 1394.05)" fill="#1B5E64"/><path d="M981.926 2.358c14.319 0 28.494 2.819 41.724 8.299a109.113 109.113 0 0135.38 23.634 109.1 109.1 0 0123.63 35.37 109.005 109.005 0 018.3 41.722H981.926V2.358zM1089.78 350.648c0-7.12 1.41-14.17 4.15-20.748a54.239 54.239 0 0111.82-17.589 54.45 54.45 0 0117.69-11.753 54.74 54.74 0 0120.86-4.127c7.16 0 14.25 1.402 20.87 4.127a54.513 54.513 0 0117.68 11.753 54.239 54.239 0 0111.82 17.589 53.953 53.953 0 014.15 20.748h-109.04z" fill="#173631"/><path d="M1199.41 132.598c0 14.317-2.81 28.494-8.28 41.722a108.929 108.929 0 01-23.57 35.37 108.789 108.789 0 01-35.28 23.634 108.468 108.468 0 01-41.61 8.299c-14.28 0-28.42-2.82-41.62-8.299a108.789 108.789 0 01-35.28-23.634 109.163 109.163 0 01-23.568-35.37 109.289 109.289 0 01-8.277-41.722h217.485z" fill="#26828B"/><path d="M720.826 241.623a109.04 109.04 0 00100.737-67.303 108.992 108.992 0 008.3-41.722H720.826v109.025z" fill="#161616"/><path d="M612.378 111.383c0-14.317 2.812-28.495 8.278-41.722a109.05 109.05 0 0123.573-35.37 108.736 108.736 0 0135.278-23.634 108.487 108.487 0 0183.227 0 108.74 108.74 0 0135.279 23.634 109.083 109.083 0 0123.573 35.37 109.265 109.265 0 018.277 41.722H612.378z" fill="#173631"/><path d="M959.529 350.648a109.27 109.27 0 00-8.277-41.722 109.081 109.081 0 00-23.573-35.37 108.731 108.731 0 00-35.279-23.634 108.49 108.49 0 00-83.227 0 108.727 108.727 0 00-35.278 23.634 109.05 109.05 0 00-23.573 35.37 109.252 109.252 0 00-8.278 41.722h217.485z" fill="#E6E6E6"/><path d="M960.117 220.408a109.3 109.3 0 01-41.726-8.276 109.079 109.079 0 01-35.374-23.57 108.723 108.723 0 01-23.637-35.275 108.46 108.46 0 010-83.218 108.726 108.726 0 0123.637-35.275 109.066 109.066 0 0135.374-23.57 109.286 109.286 0 0141.726-8.277v217.461z" fill="#173631"/><path d="M665.718 241.623c-30.11 0-54.519 24.406-54.519 54.513v54.512h109.037v-54.512c0-30.107-24.409-54.513-54.518-54.513z" fill="#26828B"/><ellipse rx="43.315" ry="43.32" transform="matrix(0 -1 -1 0 1155.5 68.067)" fill="#1B5E64"/><ellipse rx="43.315" ry="43.32" transform="matrix(0 -1 -1 0 1025.25 307.333)" fill="#26828B"/><ellipse rx="43.315" ry="43.32" transform="matrix(0 -1 -1 0 654.52 177.093)" fill="#1B5E64"/><path d="M829.863 981.227a109.034 109.034 0 00-77.101 31.933 108.96 108.96 0 00-23.636 35.37c-5.48 13.23-8.3 27.4-8.3 41.72h109.037V981.227z" fill="#1B5E64"/><path d="M699.017 632.936a53.95 53.95 0 004.15 20.748 54.23 54.23 0 0011.818 17.591 54.539 54.539 0 0017.688 11.752 54.793 54.793 0 0041.726 0 54.539 54.539 0 0017.688-11.752 54.23 54.23 0 0011.818-17.591 53.95 53.95 0 004.15-20.748H699.017z" fill="#161616"/><path d="M1090.96 872.202c0 7.12 1.41 14.17 4.15 20.748a54.268 54.268 0 0011.82 17.591 54.478 54.478 0 0017.69 11.752 54.759 54.759 0 0020.86 4.127c7.16 0 14.25-1.403 20.86-4.127a54.478 54.478 0 0017.69-11.752 54.268 54.268 0 0011.82-17.591 53.953 53.953 0 004.15-20.748h-109.04z" fill="#26828B"/><path d="M721.414 1329.52c0-7.12-1.41-14.17-4.15-20.75a54.142 54.142 0 00-11.818-17.59 54.38 54.38 0 00-17.687-11.75 54.687 54.687 0 00-20.864-4.13c-7.159 0-14.248 1.4-20.863 4.13a54.37 54.37 0 00-17.687 11.75 54.126 54.126 0 00-11.818 17.59 53.97 53.97 0 00-4.15 20.75h109.037zM612.378 1111.47c0 14.31 2.813 28.49 8.278 41.72a108.956 108.956 0 0023.572 35.37 108.789 108.789 0 0035.279 23.63 108.477 108.477 0 0083.228 0 108.784 108.784 0 0035.278-23.63 108.975 108.975 0 0023.573-35.37 109.294 109.294 0 008.277-41.72H612.378z" fill="#173631"/><path d="M1090.96 1220.49v-109.02H981.926a109.033 109.033 0 0031.934 77.09 109.172 109.172 0 0035.38 23.63c13.22 5.48 27.4 8.3 41.72 8.3z" fill="#26828B"/><path d="M1199.41 1090.25c0-14.32-2.81-28.49-8.28-41.72a108.855 108.855 0 00-58.85-59.004 108.449 108.449 0 00-41.61-8.299c-14.28 0-28.42 2.819-41.62 8.299a108.704 108.704 0 00-35.27 23.634 108.973 108.973 0 00-23.578 35.37 109.256 109.256 0 00-8.277 41.72h217.485z" fill="#1B5E64"/><path d="M612.377 850.396a109.29 109.29 0 0041.727-8.276 109.066 109.066 0 0035.374-23.571 108.716 108.716 0 0023.636-35.274 108.456 108.456 0 000-83.218 108.716 108.716 0 00-23.636-35.274 109.066 109.066 0 00-35.374-23.571 109.291 109.291 0 00-41.727-8.277v217.461z" fill="#00B8A2"/><path d="M934.773 394.26a109.285 109.285 0 00-41.726 8.276 109.076 109.076 0 00-35.374 23.571 108.73 108.73 0 00-23.637 35.274 108.456 108.456 0 000 83.218 108.733 108.733 0 0023.637 35.275 109.09 109.09 0 0035.374 23.57 109.286 109.286 0 0041.726 8.277V394.26z" fill="#1B5E64"/><path d="M829.863 611.721c0-14.317-2.812-28.495-8.277-41.722a109.05 109.05 0 00-23.573-35.37 108.716 108.716 0 00-35.278-23.634 108.485 108.485 0 00-83.228 0 108.72 108.72 0 00-35.279 23.634 109.03 109.03 0 00-23.572 35.37 109.267 109.267 0 00-8.278 41.722h217.485z" fill="#26828B"/><path d="M960.707 720.156c14.319 0 28.498-2.812 41.723-8.276a109.134 109.134 0 0035.38-23.571 108.789 108.789 0 0023.63-35.274 108.456 108.456 0 000-83.218 108.793 108.793 0 00-23.63-35.275 109.147 109.147 0 00-35.38-23.57 109.256 109.256 0 00-41.723-8.277v217.461z" fill="#00B8A2"/><path d="M1200 632.935c-14.32 0-28.5 2.812-41.73 8.277a109.091 109.091 0 00-35.37 23.571 108.648 108.648 0 00-23.64 35.274 108.452 108.452 0 000 83.218 108.648 108.648 0 0023.64 35.274 109.091 109.091 0 0035.37 23.571 109.305 109.305 0 0041.73 8.276V632.935z" fill="#1B5E64"/><path d="M852.259 872.201c0 14.318 2.812 28.495 8.277 41.722a109.068 109.068 0 0023.574 35.37 108.735 108.735 0 0035.278 23.635 108.495 108.495 0 0083.232 0 108.659 108.659 0 0035.27-23.635 109.117 109.117 0 0023.58-35.37 109.35 109.35 0 008.27-41.722H852.259z" fill="#173631"/><path d="M852.259 1329.52h217.481c0-14.32-2.81-28.5-8.27-41.72a109.191 109.191 0 00-23.58-35.38 108.708 108.708 0 00-35.27-23.63 108.477 108.477 0 00-83.232 0 108.654 108.654 0 00-35.278 23.64 108.993 108.993 0 00-23.574 35.37 109.219 109.219 0 00-8.277 41.72z" fill="#1B5E64"/><path d="M851.67 1199.28c14.318 0 28.498-2.82 41.726-8.28a108.935 108.935 0 0035.374-23.57 108.755 108.755 0 0023.637-35.27 108.45 108.45 0 000-83.22 108.797 108.797 0 00-23.637-35.28 109.166 109.166 0 00-35.374-23.567 109.286 109.286 0 00-41.726-8.277v217.464zM829.863 741.961a109.313 109.313 0 00-41.727 8.276 109.066 109.066 0 00-35.374 23.571 108.726 108.726 0 00-23.636 35.274 108.46 108.46 0 000 83.218 108.72 108.72 0 0023.636 35.275 109.063 109.063 0 0035.374 23.57 109.295 109.295 0 0041.727 8.277V741.961z" fill="#26828B"/><path d="M960.707 741.961v109.025h109.033c0-14.317-2.82-28.494-8.3-41.721a109.098 109.098 0 00-23.63-35.37 109.123 109.123 0 00-35.38-23.635 109.014 109.014 0 00-41.723-8.299zM1200 372.453h-109.04v109.026c14.32 0 28.5-2.82 41.73-8.299a108.974 108.974 0 0035.37-23.635 109.007 109.007 0 0031.94-77.092z" fill="#161616"/><path d="M938.9 741.961V632.936H829.863a109.007 109.007 0 0031.937 77.091 109.05 109.05 0 0077.1 31.934z" fill="#26828B"/><path d="M721.414 481.479V372.453H612.377a109.007 109.007 0 0031.936 77.092 109.05 109.05 0 0077.101 31.934zM721.414 926.714c0-30.106-24.409-54.513-54.519-54.513h-54.518v109.026h54.518c30.11 0 54.519-24.407 54.519-54.513z" fill="#E6E6E6"/><path d="M1145.48 1220.49c-30.11 0-54.52 24.41-54.52 54.51v54.52H1200V1275c0-30.1-24.41-54.51-54.52-54.51zM1145.48 611.721c30.11 0 54.52-24.407 54.52-54.513v-54.513h-109.04v54.513c0 30.106 24.41 54.513 54.52 54.513z" fill="#00B8A2"/><path d="M1015.23 481.479c30.11 0 54.51-24.407 54.51-54.513v-54.513H960.707v54.513c0 30.106 24.409 54.513 54.523 54.513z" fill="#173631"/><path d="M699.018 1046.94c0-23.93-19.396-43.32-43.321-43.32-23.925 0-43.32 19.39-43.32 43.32 0 23.92 19.395 43.31 43.32 43.31s43.321-19.39 43.321-43.31z" fill="#26828B"/><path d="M829.273 1286.2c0-23.92-19.395-43.31-43.32-43.31s-43.32 19.39-43.32 43.31 19.395 43.32 43.32 43.32 43.32-19.4 43.32-43.32z" fill="#E6E6E6"/><path d="M1200 1155.96c0-23.92-19.4-43.31-43.32-43.31-23.93 0-43.32 19.39-43.32 43.31s19.39 43.32 43.32 43.32c23.92 0 43.32-19.4 43.32-43.32z" fill="#161616"/><path d="M938.311 807.081c0-23.922-19.396-43.315-43.321-43.315-23.925 0-43.32 19.393-43.32 43.315 0 23.923 19.395 43.315 43.32 43.315s43.321-19.392 43.321-43.315z" fill="#173631"/><path d="M829.273 415.769c0-23.923-19.395-43.316-43.32-43.316s-43.32 19.393-43.32 43.316c0 23.922 19.395 43.315 43.32 43.315s43.32-19.393 43.32-43.315z" fill="#1B5E64"/><path d="M217.484 1241.71c-14.319 0-28.497 2.82-41.726 8.3a109.098 109.098 0 00-35.375 23.63 109.174 109.174 0 00-23.636 35.37c-5.48 13.23-8.3 27.41-8.3 41.72h109.037v-109.02z" fill="#173631"/><path d="M86.64 893.417c0 7.12 1.41 14.17 4.15 20.748a54.215 54.215 0 0011.818 17.59 54.542 54.542 0 0017.688 11.753 54.793 54.793 0 0041.726 0 54.542 54.542 0 0017.688-11.753 54.216 54.216 0 0011.818-17.59 53.953 53.953 0 004.15-20.748H86.64z" fill="#1B5E64"/><path d="M478.586 1132.68a53.99 53.99 0 004.15 20.75 54.139 54.139 0 0011.817 17.59 54.583 54.583 0 0017.688 11.76 54.862 54.862 0 0020.863 4.12c7.16 0 14.249-1.4 20.864-4.12a54.583 54.583 0 0017.688-11.76 54.139 54.139 0 0011.817-17.59 53.99 53.99 0 004.15-20.75H478.586zM109.037 1590c0-7.12-1.41-14.17-4.15-20.75a54.242 54.242 0 00-11.818-17.59 54.532 54.532 0 00-17.687-11.75 54.686 54.686 0 00-20.864-4.13c-7.159 0-14.248 1.4-20.863 4.13a54.53 54.53 0 00-17.687 11.75 54.238 54.238 0 00-11.818 17.59A53.974 53.974 0 000 1590h109.037z" fill="#161616"/><path d="M0 1371.95c0 14.32 2.812 28.49 8.277 41.72a108.973 108.973 0 0023.572 35.37 108.66 108.66 0 0035.279 23.64 108.658 108.658 0 0041.614 8.29c14.28 0 28.42-2.82 41.614-8.29a108.654 108.654 0 0035.278-23.64 108.975 108.975 0 0023.573-35.37 109.256 109.256 0 008.277-41.72H-.001z" fill="#1B5E64"/><path d="M479.176 1480.97v-109.02H370.138c0 14.32 2.82 28.49 8.3 41.72a108.98 108.98 0 0023.637 35.37 108.995 108.995 0 0035.374 23.64 109.21 109.21 0 0041.727 8.29zM587.623 1350.73c0-14.31-2.812-28.49-8.277-41.72a109.206 109.206 0 00-23.574-35.37 108.795 108.795 0 00-35.278-23.63 108.48 108.48 0 00-83.227 0 108.8 108.8 0 00-35.279 23.63 109.22 109.22 0 00-23.573 35.37 109.294 109.294 0 00-8.277 41.72h217.485z" fill="#26828B"/><path d="M0 1110.88c14.319 0 28.498-2.81 41.727-8.28a108.935 108.935 0 0035.374-23.57 108.637 108.637 0 0023.636-35.27 108.45 108.45 0 000-83.221 108.718 108.718 0 00-23.636-35.274 109.065 109.065 0 00-35.374-23.571A109.308 109.308 0 000 893.418v217.462z" fill="#173631"/><path d="M321.807 654.74a109.291 109.291 0 00-41.727 8.277 109.084 109.084 0 00-35.374 23.57 108.723 108.723 0 00-23.637 35.275 108.471 108.471 0 00-8.3 41.609c0 14.278 2.821 28.417 8.3 41.609a108.73 108.73 0 0023.637 35.274 109.087 109.087 0 0035.374 23.571 109.309 109.309 0 0041.727 8.276V654.74z" fill="#1B5E64"/><path d="M217.484 872.201c0-14.317-2.812-28.495-8.277-41.722a109.06 109.06 0 00-23.573-35.37 108.732 108.732 0 00-35.278-23.634 108.484 108.484 0 00-83.228 0 108.737 108.737 0 00-35.279 23.634 109.058 109.058 0 00-23.572 35.37 109.27 109.27 0 00-8.278 41.722h217.485z" fill="#00B8A2"/><path d="M348.33 980.637c14.319 0 28.498-2.812 41.726-8.277a109.079 109.079 0 0035.374-23.57 108.733 108.733 0 0023.637-35.275 108.452 108.452 0 000-83.218 108.73 108.73 0 00-23.637-35.274 109.066 109.066 0 00-35.374-23.571 109.281 109.281 0 00-41.726-8.276v217.461zM587.623 893.418a109.3 109.3 0 00-41.726 8.276 109.066 109.066 0 00-35.374 23.571 108.73 108.73 0 00-23.637 35.274 108.444 108.444 0 000 83.221 108.649 108.649 0 0023.637 35.27 108.935 108.935 0 0035.374 23.57 109.191 109.191 0 0041.726 8.28V893.418z" fill="#26828B"/><path d="M239.292 1132.68c0 14.32 2.812 28.5 8.278 41.73a109.188 109.188 0 0023.573 35.37 108.795 108.795 0 0035.278 23.63 108.48 108.48 0 0083.227 0 108.8 108.8 0 0035.279-23.63 109.22 109.22 0 0023.573-35.37 109.306 109.306 0 008.277-41.73H239.292z" fill="#173631"/><path d="M239.292 1590h217.485c0-14.32-2.812-28.49-8.277-41.72a109.007 109.007 0 00-23.573-35.37 108.669 108.669 0 00-35.279-23.64 108.472 108.472 0 00-83.227 0 108.665 108.665 0 00-35.278 23.64 108.975 108.975 0 00-23.573 35.37 109.238 109.238 0 00-8.278 41.72z" fill="#26828B"/><path d="M239.293 1459.76c14.319 0 28.498-2.81 41.726-8.28a108.935 108.935 0 0035.374-23.57 108.649 108.649 0 0023.637-35.27 108.45 108.45 0 000-83.22 108.649 108.649 0 00-23.637-35.27 108.935 108.935 0 00-35.374-23.57 109.191 109.191 0 00-41.726-8.28v217.46z" fill="#00B8A2"/><path d="M217.484 1002.44c-14.319 0-28.497 2.81-41.726 8.28a108.929 108.929 0 00-35.375 23.57 108.752 108.752 0 00-23.636 35.27 108.45 108.45 0 000 83.22 108.794 108.794 0 0023.636 35.28 109.248 109.248 0 0035.375 23.57 109.374 109.374 0 0041.726 8.27v-217.46z" fill="#26828B"/><path d="M348.33 1002.44v109.03h109.037c0-14.32-2.82-28.5-8.3-41.72a108.964 108.964 0 00-23.637-35.37 109.023 109.023 0 00-77.1-31.94z" fill="#173631"/><path d="M587.623 632.936H478.586v109.025a109.026 109.026 0 0077.1-31.934 109.007 109.007 0 0031.937-77.091z" fill="#161616"/><path d="M326.523 1002.44V893.418H217.486a109.007 109.007 0 0031.937 77.092 109.023 109.023 0 0077.1 31.93z" fill="#1B5E64"/><path d="M109.037 741.961V632.936H0a109.014 109.014 0 0031.936 77.091 109.037 109.037 0 0077.101 31.934z" fill="#26828B"/><path d="M109.037 1187.2c0-30.11-24.409-54.52-54.519-54.52H0v109.03h54.518c30.11 0 54.519-24.41 54.519-54.51zM533.104 1480.97c-30.109 0-54.518 24.41-54.518 54.52V1590h109.037v-54.51c0-30.11-24.409-54.52-54.519-54.52z" fill="#00B8A2"/><path d="M533.104 872.201c30.11 0 54.519-24.406 54.519-54.512v-54.513H478.586v54.513c0 30.106 24.409 54.512 54.518 54.512z" fill="#1B5E64"/><path d="M402.849 741.961c30.109 0 54.518-24.406 54.518-54.513v-54.512H348.33v54.512c0 30.107 24.409 54.513 54.519 54.513zM86.64 1307.42c0-23.92-19.394-43.32-43.32-43.32-23.925 0-43.32 19.4-43.32 43.32s19.395 43.31 43.32 43.31c23.926 0 43.32-19.39 43.32-43.31z" fill="#E6E6E6"/><path d="M216.896 1546.68c0-23.92-19.395-43.31-43.32-43.31s-43.32 19.39-43.32 43.31c0 23.93 19.395 43.32 43.32 43.32s43.32-19.39 43.32-43.32z" fill="#00B8A2"/><path d="M587.623 1416.44c0-23.92-19.395-43.31-43.32-43.31s-43.32 19.39-43.32 43.31c0 23.93 19.395 43.32 43.32 43.32s43.32-19.39 43.32-43.32zM325.934 1067.56c0-23.92-19.396-43.31-43.321-43.31-23.925 0-43.32 19.39-43.32 43.31 0 23.93 19.395 43.32 43.32 43.32s43.321-19.39 43.321-43.32zM216.896 676.251c0-23.922-19.395-43.315-43.32-43.315s-43.32 19.393-43.32 43.315c0 23.922 19.395 43.315 43.32 43.315s43.32-19.393 43.32-43.315zM500.982 348.881a53.95 53.95 0 00-4.15-20.748 54.2 54.2 0 00-11.818-17.591 54.54 54.54 0 00-17.687-11.752 54.793 54.793 0 00-41.727 0 54.561 54.561 0 00-17.687 11.752 54.23 54.23 0 00-11.818 17.591 53.95 53.95 0 00-4.15 20.748h109.037zM109.037 109.025a53.97 53.97 0 00-4.15-20.748 54.219 54.219 0 00-11.817-17.59 54.56 54.56 0 00-17.688-11.752 54.795 54.795 0 00-41.727 0 54.56 54.56 0 00-17.688 11.752A54.22 54.22 0 004.15 88.277 53.97 53.97 0 000 109.025h109.037z" fill="#161616"/><path d="M587.623 131.42a109.309 109.309 0 00-41.727 8.276 109.066 109.066 0 00-35.374 23.571 108.71 108.71 0 00-23.636 35.274 108.46 108.46 0 000 83.218 108.704 108.704 0 0023.636 35.275 109.079 109.079 0 0035.374 23.57 109.291 109.291 0 0041.727 8.277V131.42zM265.226 587.557c14.319 0 28.498-2.812 41.727-8.277a109.087 109.087 0 0035.374-23.571 108.719 108.719 0 0023.637-35.274 108.471 108.471 0 008.3-41.609c0-14.278-2.821-28.418-8.3-41.609a108.719 108.719 0 00-23.637-35.274 109.087 109.087 0 00-35.374-23.571 109.29 109.29 0 00-41.727-8.276v217.461z" fill="#173631"/><path d="M370.138 370.096c0 14.317 2.813 28.495 8.277 41.722a109.05 109.05 0 0023.573 35.37 108.732 108.732 0 0035.278 23.634 108.484 108.484 0 0083.228 0 108.736 108.736 0 0035.279-23.634 109.05 109.05 0 0023.573-35.37 109.285 109.285 0 008.277-41.722H370.138z" fill="#00B8A2"/><path d="M239.293 261.66a109.282 109.282 0 00-41.726 8.277 109.047 109.047 0 00-35.374 23.57 108.707 108.707 0 00-23.637 35.275 108.434 108.434 0 000 83.218 108.713 108.713 0 0023.637 35.274 109.066 109.066 0 0035.374 23.571 109.3 109.3 0 0041.726 8.276V261.66z" fill="#26828B"/><path d="M0 348.881c14.319 0 28.498-2.812 41.726-8.277a109.087 109.087 0 0035.374-23.57 108.72 108.72 0 0023.637-35.275 108.452 108.452 0 000-83.218A108.726 108.726 0 0077.1 163.267a109.074 109.074 0 00-35.374-23.571A109.305 109.305 0 000 131.42v217.461z" fill="#1B5E64"/><path d="M347.74 109.025c0-14.317-2.812-28.494-8.277-41.721a109.083 109.083 0 00-23.573-35.37 108.74 108.74 0 00-35.279-23.635 108.479 108.479 0 00-83.227 0 108.736 108.736 0 00-35.278 23.635 109.07 109.07 0 00-23.574 35.37 109.264 109.264 0 00-8.277 41.721H347.74z" fill="#00B8A2"/><path d="M370.138 239.855a109.29 109.29 0 0041.727-8.276 109.066 109.066 0 0035.374-23.571 108.703 108.703 0 0023.637-35.274 108.475 108.475 0 008.3-41.609c0-14.279-2.821-28.418-8.3-41.61a108.71 108.71 0 00-23.637-35.273 109.065 109.065 0 00-35.374-23.571 109.294 109.294 0 00-41.727-8.277v217.461z" fill="#26828B"/><path d="M239.293 239.266V130.24H130.256a109.022 109.022 0 0031.937 77.092 109.04 109.04 0 0077.1 31.934z" fill="#00B8A2"/><path d="M0 609.363h109.037V500.338a109.026 109.026 0 00-77.1 31.934A109.038 109.038 0 008.3 567.642 108.994 108.994 0 000 609.363zM261.099 239.856v109.025h109.038a109.007 109.007 0 00-31.937-77.092 109.03 109.03 0 00-77.101-31.933z" fill="#26828B"/><path d="M478.586 500.338v109.025h109.037a109.035 109.035 0 00-109.037-109.025z" fill="#E6E6E6"/><path d="M478.586 54.513c0 30.106 24.409 54.512 54.518 54.512h54.519V0h-54.519c-30.109 0-54.518 24.407-54.518 54.513z" fill="#00B8A2"/><path d="M54.518 370.096C24.408 370.096 0 394.502 0 424.608v54.513h109.037v-54.513c0-30.106-24.409-54.512-54.519-54.512z" fill="#E6E6E6"/><path d="M184.774 500.338c-30.109 0-54.518 24.406-54.518 54.513v54.512h109.037v-54.512c0-30.107-24.409-54.513-54.519-54.513z" fill="#00B8A2"/><path d="M261.69 174.146c0 23.922 19.395 43.315 43.32 43.315s43.32-19.393 43.32-43.315c0-23.923-19.395-43.316-43.32-43.316s-43.32 19.393-43.32 43.316zM370.727 566.048c0 23.922 19.395 43.315 43.32 43.315s43.32-19.393 43.32-43.315c0-23.923-19.395-43.316-43.32-43.316s-43.32 19.393-43.32 43.316z" fill="#1B5E64"/></svg>