<svg width="300" height="200" fill="none" xmlns="http://www.w3.org/2000/svg"><path fill="url(#paint0_linear)" d="M0 0h300v200H0z"/><path d="M138.496 94.326c-.402-2.908-2.639-4.596-5.541-4.596-3.42 0-5.996 2.493-5.996 6.724 0 4.226 2.544 6.725 5.996 6.725 3.112 0 5.177-2.014 5.541-4.513l-2.39-.013c-.301 1.535-1.553 2.397-3.119 2.397-2.123 0-3.644-1.591-3.644-4.596 0-2.953 1.509-4.595 3.65-4.595 1.592 0 2.838.9 3.113 2.467h2.39zm3.695 8.674l1.08-3.228h4.922L149.28 103h2.531l-4.615-13.09h-2.928L139.66 103h2.531zm1.72-5.133l1.77-5.273h.102l1.771 5.273h-3.643zm9.624 5.133h2.372v-4.794h2.416l2.57 4.794h2.646l-2.832-5.19c1.541-.62 2.352-1.937 2.352-3.714 0-2.5-1.61-4.187-4.615-4.187h-4.909V103zm2.372-6.763v-4.346h2.173c1.771 0 2.563.811 2.563 2.205 0 1.393-.792 2.141-2.55 2.141h-2.186zm8.76-4.34h4.046V103h2.353V91.897h4.046v-1.988h-10.445v1.988zM177.125 103h8.566v-1.988h-6.194v-3.573h5.701V95.45h-5.701v-3.554h6.142v-1.988h-8.514V103zm10.934 0h8.137v-1.988h-5.766V89.909h-2.371V103zm10.195 0h8.137v-1.988h-5.765V89.909h-2.372V103zm12.369 0l1.08-3.228h4.922l1.086 3.228h2.532l-4.615-13.09H212.7L208.091 103h2.532zm1.719-5.133l1.771-5.273h.102l1.771 5.273h-3.644zM101.443 100.511l15.24-12.197-19.43-1.725-15.252 12.276 19.442 1.646z" fill="#fff"/><path d="M100.548 96.192l15.239-12.197-19.429-1.725-15.253 12.276 19.443 1.646z" fill="#fff"/><path d="M99.537 94.274l8.418-6.738-10.732-.952-8.426 6.78 10.74.91z" fill="#fff"/><path d="M99.537 94.274l8.418-6.738-10.732-.952-8.426 6.78 10.74.91z" fill="#fff"/><path d="M102.854 106.057l15.239-12.197-19.428-1.725-15.254 12.276 19.443 1.646z" fill="#fff"/><path d="M100.99 99.822l8.418-6.737-10.732-.953-8.425 6.781 10.739.91z" fill="#fff"/><path d="M100.99 99.822l8.418-6.737-10.732-.953-8.425 6.781 10.739.91z" fill="#fff"/><path d="M104.265 111.431l15.24-12.197-19.429-1.725-15.253 12.276 19.442 1.646z" fill="#fff"/><path d="M102.401 105.196l8.418-6.737-10.732-.953-8.425 6.781 10.739.909z" fill="#fff"/><path d="M102.401 105.196l8.418-6.737-10.732-.953-8.425 6.781 10.739.909z" fill="#fff"/><path d="M105.676 116.719l15.24-12.197-19.429-1.725-15.253 12.277 19.442 1.645z" fill="#fff"/><path d="M103.812 110.484l8.418-6.737-10.732-.952-8.425 6.78 10.739.909z" fill="#fff"/><path d="M103.812 110.484l8.418-6.737-10.732-.952-8.425 6.78 10.739.909z" fill="#fff"/><defs><linearGradient id="paint0_linear" x1="334.5" y1="254.5" x2="-64.5" y2="-54" gradientUnits="userSpaceOnUse"><stop stop-color="#221670"/><stop offset="1" stop-color="#3D29BD"/></linearGradient></defs></svg>
