<svg width="1000" height="1000" fill="none" xmlns="http://www.w3.org/2000/svg"><g clip-path="url(#clip0)"><path d="M486.388 475.987L129.969 759.689l454.396 40.112 356.733-285.538-454.71-38.276z" fill="#26828B"/><path d="M507.34 576.441L150.921 860.143l454.396 40.112 356.734-285.538-454.711-38.276z" fill="#26828B"/><path d="M530.976 621.063L334.099 777.774l250.998 22.156 197.051-157.725-251.172-21.142z" fill="#034A51"/><path d="M530.976 621.063L334.099 777.774l250.998 22.156 197.051-157.725-251.172-21.142z" fill="#034A51"/><path d="M453.389 346.987L96.971 630.689l454.396 40.112L908.1 385.263l-454.711-38.276z" fill="#26828B"/><path d="M496.98 492.003l-196.878 156.71L551.1 670.87l197.051-157.725-251.171-21.142z" fill="#034A51"/><path d="M496.98 492.003l-196.878 156.71L551.1 670.87l197.051-157.725-251.171-21.142z" fill="#034A51"/><path d="M420.389 221.987L63.971 505.689l454.396 40.112L875.1 260.263l-454.711-38.276z" fill="#26828B"/><path d="M463.98 367.003l-196.878 156.71L518.1 545.87l197.051-157.725-251.171-21.142z" fill="#034A51"/><path d="M463.98 367.003l-196.878 156.71L518.1 545.87l197.051-157.725-251.171-21.142z" fill="#034A51"/><path d="M387.389 98.987L30.971 382.69l454.396 40.112L842.1 137.263 387.389 98.987z" fill="#26828B"/><path d="M430.98 244.003l-196.878 156.71L485.1 422.87l197.051-157.725-251.171-21.142z" fill="#034A51"/><path d="M430.98 244.003l-196.878 156.71L485.1 422.87l197.051-157.725-251.171-21.142z" fill="#034A51"/></g><defs><clipPath id="clip0"><path fill="#fff" d="M0 0h1000v1000H0z"/></clipPath></defs></svg>