<svg width="300" height="200" fill="none" xmlns="http://www.w3.org/2000/svg"><path fill="#fff" d="M0 0h300v200H0z"/><path d="M125.114 92.273h-1.057V101h1.057v-8.727zm1.982 8.727h1.006v-4.09c0-.96.699-1.637 1.483-1.637.763 0 1.295.498 1.295 1.244V101h1.023v-4.261c0-.844.528-1.466 1.449-1.466.716 0 1.329.379 1.329 1.346V101h1.006v-4.38c0-1.539-.827-2.25-1.994-2.25-.938 0-1.624.43-1.96 1.107h-.069c-.323-.699-.894-1.108-1.755-1.108-.853 0-1.483.41-1.756 1.108h-.085v-1.023h-.972V101zm12.356.153c1.142 0 1.739-.613 1.943-1.039h.051V101h1.006v-4.313c0-2.079-1.585-2.318-2.42-2.318-.989 0-2.114.341-2.625 1.534l.954.341c.222-.477.746-.988 1.705-.988.924 0 1.38.49 1.38 1.33v.033c0 .486-.494.444-1.687.597-1.215.158-2.54.426-2.54 1.926 0 1.278.989 2.011 2.233 2.011zm.153-.903c-.801 0-1.38-.358-1.38-1.057 0-.767.699-1.005 1.483-1.108.426-.05 1.568-.17 1.738-.375v.92c0 .819-.647 1.62-1.841 1.62zm7.325 3.341c1.568 0 2.829-.716 2.829-2.403v-6.734h-.971v1.04h-.103c-.221-.34-.63-1.125-1.909-1.125-1.653 0-2.795 1.313-2.795 3.324 0 2.046 1.193 3.205 2.778 3.205 1.279 0 1.688-.75 1.909-1.108h.086v1.329c0 1.091-.767 1.586-1.824 1.586-1.189 0-1.607-.627-1.875-.989l-.801.562c.409.686 1.214 1.313 2.676 1.313zm-.034-3.597c-1.262 0-1.909-.954-1.909-2.318 0-1.33.63-2.403 1.909-2.403 1.227 0 1.875.988 1.875 2.403 0 1.449-.665 2.318-1.875 2.318zm7.448 1.142c1.33 0 2.302-.664 2.608-1.653l-.971-.273c-.256.682-.848 1.023-1.637 1.023-1.18 0-1.994-.763-2.041-2.165h4.752v-.426c0-2.438-1.449-3.273-2.813-3.273-1.773 0-2.949 1.398-2.949 3.41 0 2.01 1.159 3.357 3.051 3.357zm-2.041-3.937c.068-1.019.789-1.926 1.939-1.926 1.091 0 1.79.818 1.79 1.926h-3.729zm9.793 3.801h5.114v-.938h-4.057v-7.79h-1.057V101zm9.273.136c1.772 0 2.966-1.346 2.966-3.375 0-2.045-1.194-3.392-2.966-3.392-1.773 0-2.966 1.347-2.966 3.392 0 2.029 1.193 3.375 2.966 3.375zm0-.903c-1.347 0-1.961-1.16-1.961-2.472s.614-2.488 1.961-2.488c1.346 0 1.96 1.176 1.96 2.488 0 1.313-.614 2.472-1.96 2.472zm6.427.92c1.142 0 1.738-.613 1.943-1.039h.051V101h1.006v-4.313c0-2.079-1.585-2.318-2.421-2.318-.988 0-2.113.341-2.625 1.534l.955.341c.221-.477.746-.988 1.704-.988.925 0 1.381.49 1.381 1.33v.033c0 .486-.494.444-1.687.597-1.215.158-2.54.426-2.54 1.926 0 1.278.988 2.011 2.233 2.011zm.153-.903c-.801 0-1.38-.358-1.38-1.057 0-.767.698-1.005 1.482-1.108.427-.05 1.569-.17 1.739-.375v.92c0 .819-.648 1.62-1.841 1.62zm7.154.886c1.261 0 1.687-.784 1.909-1.142h.119V101h.972v-8.727h-1.006v3.221h-.085c-.222-.34-.614-1.125-1.892-1.125-1.653 0-2.795 1.313-2.795 3.375 0 2.08 1.142 3.392 2.778 3.392zm.136-.903c-1.261 0-1.909-1.108-1.909-2.506 0-1.38.631-2.454 1.909-2.454 1.228 0 1.875.988 1.875 2.454 0 1.483-.664 2.506-1.875 2.506zm4.846.767h1.005v-6.546h-1.005V101zm.511-7.636c.392 0 .716-.307.716-.682 0-.375-.324-.682-.716-.682-.392 0-.716.307-.716.682 0 .375.324.682.716.682zm3.342 3.698c0-1.141.707-1.79 1.67-1.79.934 0 1.5.61 1.5 1.637V101h1.006v-4.16c0-1.67-.891-2.47-2.216-2.47-.989 0-1.602.442-1.909 1.107h-.085v-1.023h-.972V101h1.006v-3.938zm8.656 6.529c1.568 0 2.829-.716 2.829-2.403v-6.734h-.971v1.04h-.103c-.221-.34-.63-1.125-1.909-1.125-1.653 0-2.795 1.313-2.795 3.324 0 2.046 1.193 3.205 2.778 3.205 1.279 0 1.688-.75 1.909-1.108h.086v1.329c0 1.091-.767 1.586-1.824 1.586-1.189 0-1.607-.627-1.875-.989l-.801.562c.409.686 1.214 1.313 2.676 1.313zm-.034-3.597c-1.262 0-1.909-.954-1.909-2.318 0-1.33.63-2.403 1.909-2.403 1.227 0 1.875.988 1.875 2.403 0 1.449-.665 2.318-1.875 2.318zm5.437 1.074a.77.77 0 00.767-.767.77.77 0 00-.767-.767.77.77 0 00-.767.767.77.77 0 00.767.767zm3.305 0a.77.77 0 00.767-.767.77.77 0 00-.767-.767.77.77 0 00-.767.767.77.77 0 00.767.767zm3.305 0a.77.77 0 00.767-.767.77.77 0 00-.767-.767.77.77 0 00-.768.767.77.77 0 00.768.767zm3.304 0a.77.77 0 00.767-.767.77.77 0 00-.767-.767.77.77 0 00-.767.767.77.77 0 00.767.767z" fill="#949191"/><path d="M101.443 101.511l15.24-12.197-19.43-1.725-15.252 12.276 19.442 1.646z" fill="#3D29BD"/><path d="M100.548 97.192l15.239-12.197-19.429-1.725-15.253 12.276 19.443 1.646z" fill="#3D29BD"/><path d="M99.537 95.274l8.418-6.738-10.732-.952-8.426 6.78 10.74.91z" fill="#221670"/><path d="M99.537 95.274l8.418-6.738-10.732-.952-8.426 6.78 10.74.91z" fill="#221670"/><path d="M102.854 107.057l15.239-12.197-19.428-1.725-15.254 12.276 19.443 1.646z" fill="#3D29BD"/><path d="M100.99 100.822l8.418-6.737-10.732-.953-8.425 6.781 10.739.909z" fill="#221670"/><path d="M100.99 100.822l8.418-6.737-10.732-.953-8.425 6.781 10.739.909z" fill="#221670"/><path d="M104.265 112.431l15.24-12.197-19.429-1.725-15.253 12.276 19.442 1.646z" fill="#3D29BD"/><path d="M102.401 106.196l8.418-6.737-10.732-.953-8.425 6.781 10.739.909z" fill="#221670"/><path d="M102.401 106.196l8.418-6.737-10.732-.953-8.425 6.781 10.739.909z" fill="#221670"/><path d="M105.676 117.719l15.24-12.197-19.429-1.725-15.253 12.277 19.442 1.645z" fill="#3D29BD"/><path d="M103.812 111.484l8.418-6.737-10.732-.952-8.425 6.78 10.739.909z" fill="#221670"/><path d="M103.812 111.484l8.418-6.737-10.732-.952-8.425 6.78 10.739.909z" fill="#221670"/></svg>
