<svg width="1000" height="1000" fill="none" xmlns="http://www.w3.org/2000/svg"><path d="M950.614 733.1H49.08A13.026 13.026 0 0136 720.02a13.026 13.026 0 0113.08-13.081h901.534a13.027 13.027 0 0113.081 13.081c0 7.267-5.814 13.08-13.081 13.08z" fill="#C9C9C9"/><path d="M218.69 597.935c-13.952 0-25.143-11.336-25.143-25.143s11.336-25.144 25.143-25.144h142.432v50.433H218.69v-.146z" fill="#CECECE"/><path d="M369.406 606.656H218.69c-18.748 0-33.863-15.261-33.863-33.864 0-18.749 15.26-33.864 33.863-33.864h150.716v67.728z" fill="#fff"/><path d="M209.389 564.944h151.733M209.389 580.349h151.733M218.69 597.935c-13.952 0-25.143-11.336-25.143-25.143s11.336-25.144 25.143-25.144h142.432v50.433H218.69v-.146z" stroke="#1F3969" stroke-width="4" stroke-miterlimit="10" stroke-linecap="round" stroke-linejoin="round"/><path d="M218.69 597.935c-13.952 0-25.143-11.336-25.143-25.143s11.336-25.144 25.143-25.144h144.903l5.813-8.72H218.69c-18.748 0-33.863 15.261-33.863 33.864 0 18.749 15.26 33.864 33.863 33.864h150.716l-5.813-8.721H218.69z" fill="#FF3E3E"/><path d="M218.69 597.935c-13.952 0-25.143-11.336-25.143-25.143s11.336-25.144 25.143-25.144h144.903l5.813-8.72H218.69c-18.748 0-33.863 15.261-33.863 33.864 0 18.749 15.26 33.864 33.863 33.864h150.716l-5.813-8.721H218.69z" stroke="#1F3969" stroke-width="4" stroke-miterlimit="10" stroke-linecap="round" stroke-linejoin="round"/><path opacity=".28" d="M336.996 538.783h-26.742v67.873h26.742v-67.873z" fill="#1F3969" stroke="#1F3969" stroke-width="4" stroke-miterlimit="10" stroke-linecap="round" stroke-linejoin="round"/><path d="M353.855 662.611H77.857c-5.377 0-9.882-4.36-9.882-9.883v-36.335c0-5.377 4.36-9.883 9.883-9.883h275.997c5.378 0 9.883 4.361 9.883 9.883v36.335c0 5.523-4.36 9.883-9.883 9.883z" fill="#50B56F"/><path d="M152.416 636.45h-3.779v7.994h-2.47v-19.33h6.249c4.506 0 6.686 2.471 6.686 5.668 0 2.907-1.89 5.668-6.686 5.668zm0-2.18c2.907 0 4.07-1.308 4.07-3.488 0-2.18-1.163-3.633-4.07-3.633h-3.779v7.121h3.779zM166.078 625.114h2.761l4.797 9.737 4.796-9.737h2.761l-6.249 12.063v7.267h-2.471v-7.267l-6.395-12.063zM188.169 625.114h13.081v2.035h-5.232v17.295h-2.471v-17.295h-5.232v-2.035h-.146zM222.324 635.723h-9.883v8.721h-2.471v-19.33h2.471v8.429h9.883v-8.429h2.471v19.33h-2.471v-8.721zM243.398 644.589c-5.378 0-9.738-4.069-9.738-9.883 0-5.814 4.215-9.883 9.738-9.883s9.738 4.069 9.738 9.883c-.146 5.814-4.36 9.883-9.738 9.883zm0-2.18c4.069 0 7.122-2.907 7.122-7.703s-3.053-7.703-7.122-7.703-7.122 2.907-7.122 7.703 3.053 7.703 7.122 7.703zM277.116 625.114v19.33h-2.47l-10.174-15.406v15.406h-2.471v-19.33h2.471l10.174 15.26v-15.26h2.47z" fill="#fff"/><path d="M353.855 662.611H77.857c-5.377 0-9.882-4.36-9.882-9.883v-36.335c0-5.377 4.36-9.883 9.883-9.883h275.997c5.378 0 9.883 4.361 9.883 9.883v36.335c0 5.523-4.36 9.883-9.883 9.883z" stroke="#1F3969" stroke-width="4" stroke-miterlimit="10" stroke-linecap="round" stroke-linejoin="round"/><path opacity=".28" d="M353.855 606.656h-43.601v21.801c0 13.661 11.045 24.852 24.852 24.852h28.632v-36.77c0-5.523-4.36-9.883-9.883-9.883z" fill="#1F3969" stroke="#1F3969" stroke-width="4" stroke-miterlimit="10" stroke-linecap="round" stroke-linejoin="round"/><path d="M431.611 673.948H111.867c1.889 4.65 2.906 10.464 2.906 16.568 0 6.104-1.017 11.773-2.906 16.569h319.599c-1.89-4.651-2.907-10.465-2.907-16.569.145-6.249 1.163-11.918 3.052-16.568z" fill="#CECECE"/><path d="M440.331 665.082H103.292v8.72h337.039v-8.72z" fill="#5F5AFF"/><path d="M440.331 665.082H103.292v8.72h337.039v-8.72z" stroke="#1F3969" stroke-width="4" stroke-miterlimit="10" stroke-linecap="round" stroke-linejoin="round"/><path d="M440.331 706.939H103.292v8.721h337.039v-8.721z" fill="#F6F9FD"/><path d="M440.331 706.939H103.292v8.721h337.039v-8.721z" fill="#5F5AFF"/><path d="M440.331 706.939H103.292v8.721h337.039v-8.721z" stroke="#1F3969" stroke-width="4" stroke-miterlimit="10" stroke-linecap="round" stroke-linejoin="round"/><path d="M607.761 684.702l-4.36-48.979h-71.797l-4.36 48.979c-1.018 11.337-7.849 22.237-18.604 30.957v.146h117.725v-.146c-10.755-8.72-17.586-19.62-18.604-30.957z" fill="#BFCFE2"/><path opacity=".28" d="M531.604 635.723l-2.616 29.359h77.029l-2.616-29.359h-71.797z" fill="#1F3969" stroke="#1F3969" stroke-width="4" stroke-miterlimit="10" stroke-linecap="round" stroke-linejoin="round"/><path d="M607.761 684.702l-4.36-48.979h-71.797l-4.36 48.979c-1.018 11.337-7.849 22.237-18.604 30.957v.146h117.725v-.146c-10.755-8.72-17.586-19.62-18.604-30.957z" stroke="#1F3969" stroke-width="4" stroke-miterlimit="10" stroke-linecap="round" stroke-linejoin="round"/><path d="M797.137 642.99H337.868c-9.592 0-17.441-7.848-17.441-17.44V326.153c0-9.593 7.849-17.441 17.441-17.441h459.269c9.592 0 17.441 7.848 17.441 17.441V625.55c0 9.737-7.849 17.44-17.441 17.44z" fill="#fff"/><path d="M797.137 642.99H337.868c-9.592 0-17.441-7.848-17.441-17.44V326.153c0-9.593 7.849-17.441 17.441-17.441h459.269c9.592 0 17.441 7.848 17.441 17.441V625.55c0 9.737-7.849 17.44-17.441 17.44z" fill="#BFCFE2"/><path d="M797.137 642.99H337.868c-9.592 0-17.441-7.848-17.441-17.44V326.153c0-9.593 7.849-17.441 17.441-17.441h459.269c9.592 0 17.441 7.848 17.441 17.441V625.55c0 9.737-7.849 17.44-17.441 17.44z" stroke="#1F3969" stroke-width="4" stroke-miterlimit="10" stroke-linecap="round" stroke-linejoin="round"/><path d="M789.951 587.221v-253.76H345.216v253.76h444.735z" fill="#F6F9FD"/><path opacity=".28" d="M361.122 308.712v201.439c0 6.395 5.232 11.627 11.627 11.627h274.835c6.395 0 11.627-5.232 11.627-11.627V308.712H361.122z" fill="#1F3969" stroke="#1F3969" stroke-width="4" stroke-miterlimit="10" stroke-linecap="round" stroke-linejoin="round"/><path d="M789.951 587.221v-253.76H345.216v253.76h444.735zM548.027 614.94h39.096" stroke="#1F3969" stroke-width="4" stroke-miterlimit="10" stroke-linecap="round" stroke-linejoin="round"/><path d="M660.664 505.791H385.83c-6.395 0-11.628-5.232-11.628-11.627V278.772c0-6.394 5.233-11.627 11.628-11.627h274.834c6.395 0 11.627 5.233 11.627 11.627v215.537c0 6.395-5.232 11.482-11.627 11.482z" fill="#2D425E"/><path d="M672.291 295.341H374.202v-16.714c0-6.395 5.233-11.627 11.628-11.627h274.834c6.395 0 11.627 5.232 11.627 11.627v16.714z" stroke="#1F3969" stroke-width="4" stroke-miterlimit="10" stroke-linecap="round" stroke-linejoin="round"/><path d="M672.291 300.864H374.202v-22.237c0-6.395 5.233-11.627 11.628-11.627h274.834c6.395 0 11.627 5.232 11.627 11.627v22.237z" fill="#D0DDF0"/><path d="M672.291 300.864H374.202v-22.237c0-6.395 5.233-11.627 11.628-11.627h274.834c6.395 0 11.627 5.232 11.627 11.627v22.237z" stroke="#1F3969" stroke-width="4" stroke-miterlimit="10" stroke-linecap="round" stroke-linejoin="round"/><path d="M672.291 300.864H374.202v-22.237c0-6.395 5.233-11.627 11.628-11.627h274.834c6.395 0 11.627 5.232 11.627 11.627v22.237z" stroke="#1F3969" stroke-width="4" stroke-miterlimit="10" stroke-linecap="round" stroke-linejoin="round"/><path d="M660.664 505.791H385.83c-6.395 0-11.628-5.232-11.628-11.627V278.772c0-6.394 5.233-11.627 11.628-11.627h274.834c6.395 0 11.627 5.233 11.627 11.627v215.537c0 6.395-5.232 11.482-11.627 11.482z" stroke="#1F3969" stroke-width="4" stroke-miterlimit="10" stroke-linecap="round" stroke-linejoin="round"/><path opacity=".28" d="M804.113 557.241H635.521c-6.395 0-11.627-5.233-11.627-11.628v-178.62c0-6.395 5.232-11.627 11.627-11.627h168.592c6.395 0 11.627 5.232 11.627 11.627v178.62c0 6.541-5.232 11.628-11.627 11.628z" fill="#1F3969" stroke="#1F3969" stroke-width="4" stroke-miterlimit="10" stroke-linecap="round" stroke-linejoin="round"/><path d="M815.74 547.067H647.148c-6.395 0-11.627-5.232-11.627-11.627V356.819c0-6.395 5.232-11.627 11.627-11.627H815.74c6.395 0 11.627 5.232 11.627 11.627V535.44c0 6.54-5.232 11.627-11.627 11.627z" fill="#2AA1FF"/><path d="M815.74 547.067H647.148c-6.395 0-11.627-5.232-11.627-11.627V356.819c0-6.395 5.232-11.627 11.627-11.627H815.74c6.395 0 11.627 5.232 11.627 11.627V535.44c0 6.54-5.232 11.627-11.627 11.627z" stroke="#1F3969" stroke-width="4" stroke-miterlimit="10" stroke-linecap="round" stroke-linejoin="round"/><path opacity=".34" d="M790.597 400.566H672.001a7.506 7.506 0 01-7.558-7.558v-11.336a7.506 7.506 0 017.558-7.558h118.596a7.505 7.505 0 017.557 7.558v11.336a7.505 7.505 0 01-7.557 7.558z" stroke="#fff" stroke-width="2" stroke-miterlimit="10" stroke-linecap="round" stroke-linejoin="round"/><g opacity=".34" stroke="#fff" stroke-width="2" stroke-miterlimit="10" stroke-linecap="round" stroke-linejoin="round"><path opacity=".34" d="M738.566 443.15h-66.275a7.506 7.506 0 01-7.557-7.558v-11.336a7.506 7.506 0 017.557-7.558h66.275a7.506 7.506 0 017.557 7.558v11.336c-.145 4.215-3.488 7.558-7.557 7.558zM790.742 443.15h-25.725a7.505 7.505 0 01-7.557-7.558v-11.336a7.505 7.505 0 017.557-7.558h25.725a7.506 7.506 0 017.558 7.558v11.336a7.506 7.506 0 01-7.558 7.558z"/></g><path d="M664.588 487.333h133.566M664.588 503.03h133.566M664.588 518.726h81.39" stroke="#fff" stroke-width="2" stroke-miterlimit="10" stroke-linecap="round" stroke-linejoin="round"/><path d="M403.415 289.818a5.814 5.814 0 100-11.628 5.814 5.814 0 000 11.628zM423.617 289.818a5.814 5.814 0 100-11.628 5.814 5.814 0 000 11.628zM443.82 289.818a5.814 5.814 0 10-.001-11.627 5.814 5.814 0 00.001 11.627z" fill="#1F3969"/><path d="M545.411 327.751h18.894" stroke="#fff" stroke-width="4" stroke-miterlimit="10" stroke-linecap="round" stroke-linejoin="round"/><path d="M449.633 327.751h81.826" stroke="#7BFFA0" stroke-width="4" stroke-miterlimit="10" stroke-linecap="round" stroke-linejoin="round"/><path d="M409.229 327.751h28.777M446.726 470.91h62.496" stroke="#9169FF" stroke-width="4" stroke-miterlimit="10" stroke-linecap="round" stroke-linejoin="round"/><path d="M409.229 470.91h20.202" stroke="#7BFFA0" stroke-width="4" stroke-miterlimit="10" stroke-linecap="round" stroke-linejoin="round"/><path d="M531.459 345.628h11.772" stroke="#fff" stroke-width="4" stroke-miterlimit="10" stroke-linecap="round" stroke-linejoin="round"/><path d="M477.974 345.628h39.532" stroke="#9169FF" stroke-width="4" stroke-miterlimit="10" stroke-linecap="round" stroke-linejoin="round"/><path d="M423.617 345.628h40.259" stroke="#FFC47D" stroke-width="4" stroke-miterlimit="10" stroke-linecap="round" stroke-linejoin="round"/><path d="M485.968 363.505h34.735" stroke="#fff" stroke-width="4" stroke-miterlimit="10" stroke-linecap="round" stroke-linejoin="round"/><path d="M442.366 363.505h32.701" stroke="#FF5757" stroke-width="4" stroke-miterlimit="10" stroke-linecap="round" stroke-linejoin="round"/><path d="M490.618 381.381h7.122" stroke="#fff" stroke-width="4" stroke-miterlimit="10" stroke-linecap="round" stroke-linejoin="round"/><path d="M461.842 381.381h16.132" stroke="#9169FF" stroke-width="4" stroke-miterlimit="10" stroke-linecap="round" stroke-linejoin="round"/><path d="M423.617 381.381h26.016" stroke="#7BFFA0" stroke-width="4" stroke-miterlimit="10" stroke-linecap="round" stroke-linejoin="round"/><path d="M479.427 399.403h46.363" stroke="#FFC47D" stroke-width="4" stroke-miterlimit="10" stroke-linecap="round" stroke-linejoin="round"/><path d="M423.617 399.403h41.567" stroke="#FF5757" stroke-width="4" stroke-miterlimit="10" stroke-linecap="round" stroke-linejoin="round"/><path d="M533.057 417.28h25.144" stroke="#9169FF" stroke-width="4" stroke-miterlimit="10" stroke-linecap="round" stroke-linejoin="round"/><path d="M479.427 417.28h40.259" stroke="#FF5757" stroke-width="4" stroke-miterlimit="10" stroke-linecap="round" stroke-linejoin="round"/><path d="M442.366 417.28h22.818" stroke="#7BFFA0" stroke-width="4" stroke-miterlimit="10" stroke-linecap="round" stroke-linejoin="round"/><path d="M497.74 435.156h21.946" stroke="#fff" stroke-width="4" stroke-miterlimit="10" stroke-linecap="round" stroke-linejoin="round"/><path d="M442.366 435.156h40.259" stroke="#9169FF" stroke-width="4" stroke-miterlimit="10" stroke-linecap="round" stroke-linejoin="round"/><path d="M554.858 453.033h25.144" stroke="#fff" stroke-width="4" stroke-miterlimit="10" stroke-linecap="round" stroke-linejoin="round"/><path d="M477.974 453.033h63.222" stroke="#FFC47D" stroke-width="4" stroke-miterlimit="10" stroke-linecap="round" stroke-linejoin="round"/><path d="M423.617 453.033h40.259" stroke="#fff" stroke-width="4" stroke-miterlimit="10" stroke-linecap="round" stroke-linejoin="round"/><path d="M115.5 683.976h313.204M115.5 695.603h313.204M431.611 673.948H111.867c1.889 4.65 2.906 10.464 2.906 16.568 0 6.104-1.017 11.773-2.906 16.569h319.599c-1.89-4.651-2.907-10.465-2.907-16.569.145-6.249 1.163-11.918 3.052-16.568z" stroke="#1F3969" stroke-width="4" stroke-miterlimit="10" stroke-linecap="round" stroke-linejoin="round"/><path d="M861.739 555.455l-14.146 1.66 12.303 104.798 14.146-1.66-12.303-104.798z" fill="#FFA364"/><path d="M861.758 555.566l-14.146 1.661 1.254 10.682 14.146-1.661-1.254-10.682z" fill="#2AA1FF"/><path d="M861.758 555.566l-14.146 1.661 1.254 10.682 14.146-1.661-1.254-10.682z" stroke="#1F3969" stroke-width="4" stroke-miterlimit="10" stroke-linecap="round" stroke-linejoin="round"/><path d="M861.739 555.455l-14.146 1.66 12.303 104.798 14.146-1.66-12.303-104.798z" stroke="#1F3969" stroke-width="4" stroke-miterlimit="10" stroke-linecap="round" stroke-linejoin="round"/><path d="M900.529 576.921l-14.159-1.54-11.407 104.893 14.16 1.54 11.406-104.893z" fill="#FF5252"/><path d="M900.529 576.921l-14.159-1.54-11.407 104.893 14.16 1.54 11.406-104.893z" stroke="#1F3969" stroke-width="4" stroke-miterlimit="10" stroke-linecap="round" stroke-linejoin="round"/><path d="M900.634 576.945l-14.159-1.539-1.163 10.691 14.159 1.54 1.163-10.692z" fill="#2D425E"/><path d="M900.634 576.945l-14.159-1.539-1.163 10.691 14.159 1.54 1.163-10.692z" stroke="#1F3969" stroke-width="4" stroke-miterlimit="10" stroke-linecap="round" stroke-linejoin="round"/><path d="M909.338 716.095H852.22l-9.301-87.493h75.721l-9.302 87.493z" fill="#6567C3"/><path d="M842.919 628.602l.145 1.598h57.699l-9.156 85.895h17.731l9.302-87.493h-75.721z" fill="#6567C3"/><path d="M909.338 716.095H852.22l-9.301-87.493h75.721l-9.302 87.493z" stroke="#1F3969" stroke-width="4" stroke-miterlimit="10" stroke-linecap="round" stroke-linejoin="round"/></svg>
