<svg width="500" height="500" fill="none" xmlns="http://www.w3.org/2000/svg"><g clip-path="url(#clip0)"><path fill="#1572B6" d="M0 0h500v500H0z"/><g clip-path="url(#clip1)"><path d="M-28.923 573.754L-91-122h682l-62.154 695.638L249.576 651l-278.499-77.246z" fill="#1572B6"/><path d="M250.114 223.841h58.685l4.04-45.404h-62.725v-44.323h111.209l-1.06 11.9-10.901 122.21h-99.248v-44.383z" fill="#fff"/><path d="M250.354 339.01h-.2l-49.384-13.341-3.16-35.363h-44.484l6.221 69.626 90.847 25.282h.26V339.01h-.1z" fill="#EBEBEB"/><path d="M305.039 266.284l-5.341 59.345-49.464 13.341v46.204l90.907-25.202.66-7.501 7.721-86.207h-44.483v.02z" fill="#fff"/><path d="M250.274 134.114v44.343H143.186l-.92-9.961-2.021-22.482-1.06-11.9h111.089zm-.16 89.727v44.343H201.29l-.86-9.961-2.02-22.481-1.06-11.901h52.764z" fill="#EBEBEB"/></g></g><defs><clipPath id="clip0"><path fill="#fff" d="M0 0h500v500H0z"/></clipPath><clipPath id="clip1"><path fill="#fff" transform="translate(73 -35)" d="M0 0h354.228v500H0z"/></clipPath></defs></svg>
