<svg width="500" height="500" fill="none" xmlns="http://www.w3.org/2000/svg"><g clip-path="url(#clip0)"><path fill="#E44D26" d="M0 0h500v500H0z"/><path d="M426.954 60.014l-32.189 360.609-144.696 40.114-144.296-40.058L73.617 60.014h353.337z" fill="#E44D26"/><path d="M187.709 177.972h62.576v-44.234H139.367l1.058 11.867 10.873 121.898h98.987v-44.234h-58.533l-4.043-45.297zm9.97 111.648h-44.405l6.197 69.455 90.611 25.152.203-.055V338.15l-.194.051-49.263-13.302-3.149-35.279z" fill="#EBEBEB"/><path d="M250.133 267.503h54.469l-5.135 57.368-49.335 13.316v46.019l90.682-25.131.665-7.474 10.396-116.454 1.079-11.878H250.133v44.234zm0-89.639v.108h106.846l.887-9.942 2.016-22.425 1.057-11.867H250.133v44.128-.002z" fill="#fff"/></g><defs><clipPath id="clip0"><path fill="#fff" d="M0 0h500v500H0z"/></clipPath></defs></svg>
