<svg width="500" height="500" fill="none" xmlns="http://www.w3.org/2000/svg"><path fill="#fff" d="M0 0h500v500H0z"/><path d="M0 0h500v500H0V0z" fill="#F7DF1E"/><path d="M85.002 323.975l38.262-23.157c7.382 13.088 14.097 24.162 30.205 24.162 15.439 0 25.176-6.039 25.176-29.531V135.687h46.986v160.426c0 48.666-28.527 70.819-70.149 70.819-37.587 0-59.406-19.467-70.482-42.961l.002.004zm166.15-5.036l38.258-22.15c10.072 16.447 23.162 28.529 46.319 28.529 19.47 0 31.884-9.734 31.884-23.16 0-16.109-12.754-21.816-34.234-31.211l-11.744-5.039c-33.901-14.428-56.387-32.553-56.387-70.814 0-35.242 26.85-62.094 68.805-62.094 29.871 0 51.351 10.406 66.789 37.592l-36.586 23.496c-8.057-14.432-16.779-20.137-30.205-20.137-13.762 0-22.488 8.727-22.488 20.137 0 14.096 8.726 19.805 28.863 28.531l11.746 5.033c39.941 17.119 62.428 34.571 62.428 73.836 0 42.293-33.227 65.45-77.866 65.45-43.63 0-71.824-20.809-85.584-47.997" fill="#000"/></svg>
