<svg width="500" height="500" fill="none" xmlns="http://www.w3.org/2000/svg"><path fill="#fff" d="M0 0h500v500H0z"/><path d="M248.365 60.107c-96.733 0-90.693 41.897-90.693 41.897l.107 43.407h92.31v13.031H121.115s-61.899-7.011-61.899 90.47c0 97.484 54.027 94.027 54.027 94.027h32.243v-45.236s-1.738-53.96 53.165-53.96h91.555s51.438.83 51.438-49.652v-83.469s7.813-50.515-93.279-50.515zm-50.9 29.19a16.606 16.606 0 0111.747 4.854 16.577 16.577 0 014.859 11.732 16.554 16.554 0 01-4.859 11.733 16.608 16.608 0 01-11.747 4.853 16.598 16.598 0 01-11.747-4.853 16.569 16.569 0 01-4.86-11.733 16.553 16.553 0 014.86-11.732 16.606 16.606 0 0111.747-4.853z" fill="url(#paint0_linear)"/><path d="M251.112 438.698c96.732 0 90.692-41.897 90.692-41.897l-.107-43.405h-92.312v-13.032h128.974s61.899 7.011 61.899-90.473c0-97.482-54.027-94.025-54.027-94.025h-32.243v45.235s1.738 53.96-53.164 53.96h-91.555s-51.439-.83-51.439 49.653v83.47s-7.811 50.514 93.28 50.514h.002zm50.899-29.187a16.607 16.607 0 01-11.747-4.854 16.574 16.574 0 01-4.859-11.732 16.568 16.568 0 0110.249-15.329 16.603 16.603 0 016.357-1.259 16.608 16.608 0 0111.747 4.854 16.561 16.561 0 014.86 11.732 16.57 16.57 0 01-10.249 15.328 16.626 16.626 0 01-6.358 1.258v.002z" fill="url(#paint1_linear)"/><defs><linearGradient id="paint0_linear" x1="95.834" y1="94.159" x2="284.435" y2="281.11" gradientUnits="userSpaceOnUse"><stop stop-color="#387EB8"/><stop offset="1" stop-color="#366994"/></linearGradient><linearGradient id="paint1_linear" x1="211.74" y1="214.058" x2="414.287" y2="405.77" gradientUnits="userSpaceOnUse"><stop stop-color="#FFE052"/><stop offset="1" stop-color="#FFC331"/></linearGradient></defs></svg>
