<svg width="500" height="500" fill="none" xmlns="http://www.w3.org/2000/svg"><path fill="#CF649A" d="M0 0h500v500H0z"/><g clip-path="url(#clip0)"><path d="M400.848 273.238c-14.579.082-27.203 3.574-37.791 8.775-3.909-7.718-7.818-14.463-8.469-19.5-.733-5.85-1.629-9.426-.733-16.412.895-6.989 4.967-16.901 4.967-17.714-.082-.731-.896-4.306-9.285-4.387-8.388-.081-15.637 1.625-16.451 3.819-.815 2.193-2.444 7.231-3.503 12.431-1.466 7.637-16.777 34.694-25.492 48.912-2.851-5.525-5.294-10.4-5.783-14.3-.733-5.85-1.629-9.425-.733-16.412.896-6.988 4.969-16.9 4.969-17.712-.082-.732-.896-4.307-9.284-4.388-8.39-.081-15.638 1.625-16.452 3.819-.815 2.193-1.711 7.393-3.503 12.431-1.711 5.037-22.072 50.213-27.366 61.994-2.688 6.012-5.049 10.806-6.76 14.056-1.71 3.25-.081.244-.244.569-1.466 2.762-2.281 4.306-2.281 4.306v.082c-1.14 2.031-2.362 3.98-2.933 3.98-.407 0-1.221-5.443.163-12.917 3.014-15.682 10.344-40.138 10.263-41.032 0-.406 1.384-4.713-4.724-6.906-5.946-2.194-8.063 1.463-8.552 1.463-.489 0-.896 1.3-.896 1.3s6.597-27.543-12.624-27.543c-12.054 0-28.669 13.081-36.895 25.025-5.212 2.843-16.289 8.855-28.017 15.275-4.48 2.437-9.122 5.037-13.52 7.393l-.895-.976c-23.293-24.782-66.378-42.332-64.586-75.644.651-12.106 4.887-44.037 82.749-82.712 63.772-31.688 114.838-22.994 123.715-3.657 12.624 27.625-27.284 78.975-93.58 86.369-25.248 2.844-38.525-6.906-41.863-10.563-3.502-3.818-3.991-3.981-5.294-3.25-2.118 1.138-.814 4.55 0 6.582 1.955 5.118 10.099 14.218 23.945 18.768 12.134 3.982 41.781 6.176 77.617-7.637 40.153-15.519 71.509-58.581 62.306-94.575-9.366-36.644-70.287-48.669-127.869-28.275-34.289 12.188-71.428 31.2-98.142 56.144-31.764 29.575-36.814 55.412-34.696 66.137 7.412 38.269 60.269 63.213 81.445 81.657-1.059.567-2.036 1.136-2.932 1.625-10.588 5.199-50.903 26.243-61.002 48.505-11.403 25.187 1.791 43.307 10.587 45.745 27.203 7.556 55.057-6.013 70.125-28.357 14.985-22.343 13.194-51.35 6.271-64.593l-.245-.488 8.307-4.875c5.377-3.169 10.671-6.094 15.312-8.613-2.605 7.068-4.479 15.437-5.456 27.625-1.14 14.301 4.724 32.825 12.461 40.137 3.421 3.168 7.493 3.25 10.018 3.25 8.959 0 13.031-7.394 17.511-16.25 5.538-10.806 10.425-23.319 10.425-23.319s-6.109 33.882 10.588 33.882c6.108 0 12.216-7.882 14.986-11.944v.081s.162-.244.488-.812c.342-.504.668-1.019.978-1.543v-.163c2.443-4.225 7.9-13.893 16.044-29.9 10.506-20.637 20.606-46.475 20.606-46.475s.977 6.338 3.991 16.738c1.791 6.176 5.7 12.919 8.714 19.5-2.444 3.412-3.91 5.363-3.91 5.363l.082.081a229.967 229.967 0 01-6.434 8.125c-8.307 9.913-18.243 21.207-19.547 24.457-1.547 3.818-1.221 6.662 1.792 8.938 2.199 1.625 6.109 1.949 10.262 1.625 7.493-.488 12.706-2.356 15.312-3.495 4.072-1.462 8.715-3.656 13.194-6.906 8.145-6.012 13.113-14.543 12.624-25.918-.244-6.256-2.28-12.431-4.805-18.281.733-1.056 1.467-2.113 2.199-3.25 12.868-18.77 22.805-39.406 22.805-39.406s.977 6.337 3.99 16.737c1.547 5.281 4.643 11.051 7.412 16.738-12.054 9.832-19.628 21.207-22.235 28.682-4.805 13.812-1.058 20.068 6.027 21.531 3.176.65 7.738-.813 11.158-2.275 4.235-1.381 9.366-3.738 14.09-7.231 8.145-6.013 15.964-14.382 15.556-25.675-.244-5.2-1.628-10.319-3.502-15.194 10.262-4.225 23.537-6.663 40.397-4.631 36.243 4.225 43.411 26.812 42.027 36.237-1.385 9.426-8.959 14.625-11.485 16.25-2.525 1.544-3.339 2.114-3.095 3.25.326 1.707 1.466 1.625 3.665 1.301 3.014-.488 19.058-7.719 19.71-25.105.977-22.347-20.28-46.722-57.989-46.479zm-279.52 94.006c-11.973 13.081-28.832 18.037-36 13.812-7.736-4.469-4.724-23.725 10.019-37.618 8.959-8.45 20.605-16.25 28.261-21.044 1.711-1.056 4.317-2.599 7.412-4.469.488-.324.814-.487.814-.487.57-.325 1.222-.732 1.873-1.138 5.457 19.825.245 37.212-12.379 50.944zm87.553-59.394c-4.153 10.156-12.949 36.238-18.243 34.775-4.562-1.219-7.33-20.962-.897-40.462 3.258-9.833 10.181-21.532 14.253-26.083 6.598-7.312 13.764-9.75 15.557-6.743 2.117 3.9-8.063 32.176-10.67 38.513zm72.242 34.45c-1.791.895-3.42 1.544-4.153 1.057-.57-.325.732-1.544.732-1.544s9.04-9.668 12.624-14.137c2.036-2.599 4.479-5.606 7.086-9.019v.975c0 11.699-11.239 19.499-16.289 22.668zm55.708-12.675c-1.303-.975-1.139-3.981 3.258-13.406 1.711-3.738 5.62-9.994 12.38-15.925.814 2.437 1.304 4.793 1.221 6.987-.08 14.625-10.505 20.069-16.859 22.344z" fill="#fff"/></g><defs><clipPath id="clip0"><path fill="#fff" transform="translate(42 94)" d="M0 0h417v312H0z"/></clipPath></defs></svg>
