<svg width="500" height="500" viewBox="0 0 500 500" fill="none" xmlns="http://www.w3.org/2000/svg">
<rect width="500" height="500" fill="#283037"/>
<path d="M155.188 144.653C152.091 141.551 148.348 140 143.964 140C139.58 140 135.826 141.566 132.696 144.697C129.609 147.784 128.043 151.539 128.043 155.924C128.043 160.309 129.609 164.067 132.696 167.151L181.399 215.866L132.739 264.537C129.609 267.668 128.043 271.423 128 275.808C128.043 280.193 129.609 283.951 132.696 287.035C135.826 290.123 139.58 291.688 143.92 291.732C148.348 291.732 152.105 290.166 155.236 287.035L209.348 232.866C220.707 221.548 220.707 210.187 209.348 198.822L155.188 144.653ZM367.308 264.624C364.178 261.493 360.377 259.927 355.949 259.927V259.905H251.478V259.927C247.051 259.927 243.29 261.493 240.163 264.624C237.033 267.755 235.467 271.513 235.467 275.942C235.467 280.37 237.033 284.172 240.163 287.303C243.293 290.434 247.047 292 251.478 292V291.978H355.946V292C360.373 292 364.17 290.434 367.304 287.303C370.435 284.172 372 280.37 372 275.942C372 271.513 370.435 267.755 367.304 264.624H367.308Z" fill="white"/>
</svg>
