<svg width="500" height="500" fill="none" xmlns="http://www.w3.org/2000/svg"><path d="M0 250V0h500v500H0" fill="#007ACC"/><path d="M75 157.342v20.375h65v185h46.125v-185h65v-20c0-11.25 0-20.375-.5-20.625 0-.375-39.625-.5-87.75-.5l-87.5.375v20.5l-.375-.125zm292.125-20.875c12.75 3 22.5 8.75 31.25 17.875 4.625 5 11.5 13.75 12 16 0 .75-21.625 15.375-34.75 23.5-.5.375-2.5-1.75-4.5-5-6.5-9.25-13.125-13.25-23.5-14-15-1-25 6.875-25 20 0 4 .75 6.25 2.25 9.5 3.375 6.875 9.625 11 29 19.5 35.75 15.375 51.25 25.5 60.625 40 10.625 16.25 13 41.75 5.875 60.875-8 20.875-27.5 35-55.375 39.625-8.75 1.5-28.75 1.25-38.125-.375-20-3.75-39.125-13.75-50.875-26.625-4.625-5-13.5-18.375-13-19.25l4.75-3 18.75-10.875 14.125-8.25 3.25 4.375c4.125 6.5 13.375 15.25 18.75 18.25 16.25 8.375 38 7.25 48.75-2.5 4.625-4.25 6.625-8.75 6.625-15 0-5.75-.875-8.375-3.75-12.75-4-5.5-12-10-34.5-20-25.875-11-36.875-18-47.125-28.75-5.875-6.5-11.25-16.625-13.75-25-1.875-7.25-2.5-25-.75-32.125 5.375-25 24.25-42.5 51.25-47.5 8.75-1.75 29.375-1 38 1.25l-.25.25z" fill="#fff"/></svg>
